<?xml version="1.0" encoding="utf-8"?>
<!-- Generator: Adobe Illustrator 22.1.0, SVG Export Plug-In . SVG Version: 6.00 Build 0)  -->
<svg version="1.1" id="Layer_1" xmlns="http://www.w3.org/2000/svg" xmlns:xlink="http://www.w3.org/1999/xlink" x="0px" y="0px"
	 viewBox="0 0 300 300" style="enable-background:new 0 0 300 300;" xml:space="preserve">
<style type="text/css">
	.st0{fill:#FFFFFF;}
</style>
<g>
	<title>askccsc</title>
	<path class="st0" d="M128.8,117.9l0.1,6.4h-0.8c-1.3-3.8-3.3-5.8-6.4-5.8c-1.7,0-3,0.5-4,1.4c-0.9,0.9-1.4,1.9-1.4,2.9
		c0,0.9,0.4,1.8,1.2,2.4c0.8,0.7,2.3,1.2,4.3,1.5c2.1,0.3,3.7,0.8,4.8,1.3c1.2,0.6,2.1,1.5,2.8,2.6c0.8,1.3,1.2,2.7,1.2,4.2
		c0,2.4-0.8,4.4-2.3,6c-1.5,1.6-3.7,2.4-5.8,2.4c-1.9,0-3.8-0.7-5.7-2.1l-1.8,1.5h-0.7v-6.9h0.8c0.8,2.2,1.8,3.8,3,4.8
		c1.2,1,2.7,1.6,4.3,1.7c1.5,0,3-0.5,4.2-1.5c1.3-0.9,1.9-2.3,1.9-3.8c0-1.3-0.4-2.4-1.3-3.3c-0.9-0.9-2.3-1.5-4.3-1.8
		c-1.6-0.3-3.1-0.6-4.6-1.2c-1.1-0.5-2.1-1.3-2.8-2.3c-0.8-1.1-1.2-2.3-1.2-3.7c0-1.8,0.7-3.6,2-5c1.3-1.5,3.1-2.2,5.3-2.2
		c1.9,0,3.8,0.7,5.3,1.8c0.5-0.4,0.8-0.9,1.2-1.5L128.8,117.9z"/>
	<path class="st0" d="M133.9,118.1h20.9l0.7,8.4h-0.9c-0.6-2.8-1.3-4.8-2.3-5.8c-0.9-1.1-2.3-1.7-3.7-1.6h-2v22.7h4.4v0.9H138v-0.9
		h4.4v-22.7h-2c-1.4-0.1-2.8,0.5-3.8,1.6c-0.9,1.1-1.7,3-2.3,5.8h-0.9L133.9,118.1z"/>
	<path class="st0" d="M179,119h-4v-0.9h8.8v0.9h-3.8v14.9c0,2.2-0.2,3.8-0.5,4.8c-0.3,1-0.9,1.9-1.8,2.6c-0.9,0.8-1.9,1.3-3.1,1.5
		c-1.2,0.3-2.4,0.5-3.7,0.5c-2.7,0-4.7-0.4-5.9-1.3c-1.3-0.8-2-1.8-2.3-3.1c-0.3-1.7-0.5-3.3-0.4-4.9v-14.9h-3.6v-0.9h11.7v0.9h-3.8
		v14.5c0,1.6,0.1,3.2,0.3,4.7c0.2,1.1,0.7,2.1,1.5,2.8c0.8,0.8,2.1,1.2,3.8,1.2c1.3,0,2.6-0.3,3.8-0.8c1-0.5,1.8-1.3,2.3-2.3
		c0.4-1,0.7-2.8,0.7-5.4L179,119z"/>
	<path class="st0" d="M190.6,141.8V119h-3.8v-0.9h11.6c2.6,0,4.8,0.3,6.6,1.1c1.8,0.8,3.3,2.2,4.6,4.3c1.3,2.1,1.8,4.5,1.8,6.9
		c0,2.5-0.7,4.9-2,7c-1.3,2.1-2.9,3.4-4.7,4.2c-1.8,0.8-3.9,1.1-6.4,1.1h-11.5v-0.9H190.6z M194.9,119v22.7h3.2
		c1.3,0,2.8-0.1,4.1-0.4c1.1-0.3,2-1,2.6-2c0.8-1.2,1.3-2.5,1.4-3.9c0.3-2,0.4-4.1,0.3-6.2c0-3.1-0.4-5.3-1.2-6.9
		c-0.8-1.5-1.8-2.4-2.8-2.8c-1.4-0.4-2.9-0.6-4.4-0.5L194.9,119L194.9,119z"/>
	<path class="st0" d="M223.9,119v10.5h2.3c0.7,0,1.3-0.1,2-0.3c0.6-0.3,1.2-0.7,1.5-1.3c0.4-0.7,0.7-1.8,0.8-3.2h0.9v10.4h-1.1
		c-0.1-2-0.5-3.3-1.2-3.9c-0.7-0.7-1.7-0.9-3-0.9h-2.3v11.2h5c2.8,0,4.8-0.6,5.8-1.8c1.1-1.2,1.8-3,1.9-5.5h0.9l-0.3,8.2h-21.8v-0.9
		h3.9v-22.7h-3.9V118h20.9l0.4,6.6h-0.9c-0.3-2-1-3.4-1.9-4.3c-1-0.9-2.7-1.3-4.9-1.3L223.9,119L223.9,119z"/>
	<path class="st0" d="M263,119v24.1h-0.8l-16.2-24.3l0,0v22.8h4.2v0.9h-8.7v-0.9h3.7V119h-3.9v-0.9h9.4l11.4,17.2h0.1V119h-4.1v-0.9
		h8.7v0.9L263,119L263,119z"/>
	<path class="st0" d="M269.9,118.1h20.9l0.7,8.4h-0.9c-0.6-2.8-1.3-4.8-2.3-5.8c-0.9-1.1-2.3-1.7-3.8-1.6h-2v22.7h4.4v0.9h-13.1
		v-0.9h4.4v-22.7h-2.1c-1.4-0.1-2.8,0.5-3.8,1.6c-0.9,1.1-1.7,3-2.3,5.8h-0.9L269.9,118.1z"/>
	<path class="st0" d="M122.5,151.6v7.3h-0.8c-0.8-4.4-3.1-6.7-6.6-6.7c-1.9,0-3.3,0.8-4.2,2.3c-0.8,1.5-1.3,4.7-1.3,9.5
		c0,3.9,0.2,6.7,0.6,8.1c0.4,1.4,1,2.4,2,3.1c0.9,0.6,2,0.9,3.1,0.9c1.5,0,2.8-0.6,4.1-1.7c1.3-1.1,2.3-2.8,3-5.3h0.8l-0.3,7.5h-0.8
		c-0.3-0.8-0.8-1.4-1.3-2c-1.9,1.6-3.9,2.4-5.9,2.4c-2.6,0-4.9-1.3-7.1-3.7s-3.2-5.4-3.2-9s1.1-6.7,3.2-9.2s4.5-3.8,7.3-3.8
		c2.1,0,4.1,0.8,5.6,2.3c0.4-0.7,0.8-1.3,1.1-2H122.5z"/>
	<path class="st0" d="M138.2,177c-3.2,0-5.8-1.3-8.1-4s-3.3-5.5-3.3-8.5c0-3.7,1.2-6.8,3.5-9.3c2.3-2.6,5-3.8,8.1-3.8
		c2.9,0,5.5,1.3,7.8,3.9c2.3,2.6,3.4,5.6,3.4,8.9c0,3.3-1.2,6.5-3.4,9C143.8,175.7,141.2,177,138.2,177z M138.3,152.2
		c-1.3,0-2.5,0.3-3.6,0.9c-1.1,0.7-1.8,1.7-2.2,3.2s-0.6,4.2-0.6,8c0,2.1,0.1,4.2,0.3,6.3c0.2,1.4,0.8,2.8,1.7,3.8
		c0.9,1,2.3,1.5,4.3,1.5c1.3,0,2.4-0.3,3.5-0.9c1.2-0.7,1.9-1.8,2.3-3.7c0.3-1.8,0.5-4.6,0.5-8.4c0-3.4-0.3-5.8-0.7-7.1
		c-0.4-1.3-1.2-2.3-2.2-2.8C140.6,152.6,139.5,152.2,138.3,152.2L138.3,152.2z"/>
	<path class="st0" d="M174.8,152.8V177H174l-16.1-24.3h-0.1v22.8h4.2v0.9h-8.8v-0.9h3.7v-22.7H153v-0.9h9.4l11.4,17.2h0.1v-16.3
		h-4.1v-0.9h8.7v0.9L174.8,152.8L174.8,152.8z"/>
	<path class="st0" d="M197.3,168.2h-4.2v-0.9h12.7v0.9h-3.6c0,3.2-1,5.4-3,6.8c-1.8,1.3-4.1,2-6.4,2c-3.2,0-5.8-1.3-8-3.8
		c-2.1-2.5-3.3-5.7-3.2-9c-0.1-3.3,1.1-6.5,3.3-9c2.2-2.5,4.9-3.8,8.2-3.8c1.8,0,3.4,0.5,4.8,1.5c0.3,0.3,0.6,0.3,1,0.4
		c0.4,0,0.8-0.3,1.2-1.1h0.8l0.3,6.7h-0.9c-1-4.4-3.4-6.6-7.2-6.6c-2,0-3.4,0.4-4.3,1.3c-0.9,0.9-1.5,2.1-1.7,3.3
		c-0.3,1.9-0.3,3.8-0.3,5.8c0,4.5,0.2,7.5,0.4,8.9c0.3,1.5,0.9,2.6,1.8,3.3c1,0.8,2.2,1.2,3.4,1.1c1,0,2-0.2,2.8-0.7
		c0.8-0.4,1.3-1.1,1.6-2c0.3-1.3,0.3-2.6,0.3-3.9L197.3,168.2z"/>
	<path class="st0" d="M212.8,175.5v-22.7H209v-0.9h13.5c1.4,0,2.9,0.1,4.3,0.4c1.2,0.3,2.2,1,2.9,1.9c0.8,0.9,1.3,2.1,1.3,3.3
		c0,1.5-0.7,2.8-1.8,3.8c-1.2,1-3.3,1.7-6.1,2.2v0.1c1.8,0.3,3.6,1.1,5,2.3c1.3,1.2,2,3.1,2,5.9c0,1.6,0.2,2.6,0.6,3
		s0.9,0.7,1.6,0.7c0.5,0,1-0.1,1.5-0.3v0.9c-1,0.3-2,0.5-3.1,0.6c-2,0-3.4-0.6-4.3-1.7c-0.8-1.1-1.3-2.3-1.2-3.3l0.1-3.1
		c0-1.2-0.4-2.3-1-3.2c-0.7-1.1-2.3-1.6-4.7-1.6h-2.3v11.6h3.8v0.9h-12v-0.9L212.8,175.5L212.8,175.5z M217.2,152.8V163h3.3
		c1.1,0,2.2-0.1,3.3-0.3c0.8-0.3,1.4-0.8,1.8-1.5c0.4-0.8,0.7-2.1,0.7-3.8c0-1.4-0.3-2.5-0.7-3.2c-0.3-0.6-0.9-1-1.7-1.3
		c-0.8-0.2-1.7-0.3-2.5-0.3L217.2,152.8z"/>
	<path class="st0" d="M245.2,152.8v10.5h2.3c0.7,0,1.3-0.1,2-0.3c0.6-0.3,1.2-0.7,1.5-1.3c0.4-0.7,0.7-1.8,0.8-3.2h0.9V169h-0.9
		c-0.1-2-0.5-3.3-1.2-3.9c-0.7-0.7-1.7-0.9-3-0.9h-2.3v11.2h5c2.8,0,4.8-0.6,5.8-1.8c1.1-1.2,1.8-3,1.9-5.5h0.9l-0.3,8.2h-21.8v-0.8
		h3.9v-22.6h-3.9v-0.9h20.9l0.4,6.6h-0.9c-0.3-2-1-3.4-1.9-4.3c-1-0.9-2.7-1.3-4.9-1.3L245.2,152.8z"/>
	<path class="st0" d="M278.1,151.6l0.1,6.4h-0.8c-1.3-3.8-3.3-5.8-6.4-5.8c-1.7,0-3,0.5-4,1.4s-1.4,1.9-1.4,2.9
		c0,0.9,0.4,1.8,1.2,2.4c0.8,0.7,2.3,1.2,4.3,1.5c2.1,0.3,3.7,0.8,4.8,1.3c1.2,0.6,2.1,1.5,2.8,2.6c0.8,1.3,1.2,2.7,1.1,4.2
		c0,2.4-0.8,4.4-2.3,6c-1.5,1.6-3.6,2.4-5.8,2.4c-1.9,0-3.8-0.7-5.7-2.1l-1.8,1.5h-0.7v-6.9h0.8c0.8,2.2,1.8,3.8,3,4.8
		c1.2,1,2.7,1.6,4.3,1.7c1.5,0,3-0.5,4.2-1.5c1.3-0.9,1.9-2.3,1.9-3.8c0-1.3-0.4-2.4-1.3-3.3c-0.9-0.9-2.3-1.5-4.3-1.8
		c-1.6-0.3-3.1-0.6-4.6-1.2c-1.1-0.5-2.1-1.3-2.8-2.3c-0.8-1.1-1.2-2.3-1.2-3.7c0-1.8,0.7-3.6,2-5c1.3-1.5,3.1-2.2,5.3-2.2
		c1.9,0,3.8,0.7,5.3,1.8c0.5-0.4,0.8-0.9,1.2-1.5H278.1z"/>
	<path class="st0" d="M298.4,151.6l0.1,6.4h-0.8c-1.3-3.8-3.3-5.8-6.4-5.8c-1.7,0-3,0.5-4,1.4s-1.4,1.9-1.4,2.9
		c0,0.9,0.4,1.8,1.2,2.4c0.8,0.7,2.3,1.2,4.3,1.5c2.1,0.3,3.7,0.8,4.8,1.3c1.2,0.6,2.1,1.5,2.8,2.6c0.8,1.3,1.2,2.7,1.1,4.2
		c0,2.4-0.8,4.4-2.3,6c-1.5,1.6-3.7,2.4-5.8,2.4c-1.9,0-3.8-0.7-5.7-2.1l-1.8,1.5h-0.7v-6.9h0.8c0.8,2.2,1.8,3.8,3,4.8
		c1.2,1,2.7,1.6,4.3,1.7c1.5,0,3-0.5,4.2-1.5c1.3-0.9,1.9-2.3,1.9-3.8c0-1.3-0.4-2.4-1.3-3.3c-0.9-0.9-2.3-1.5-4.3-1.8
		c-1.6-0.3-3.1-0.6-4.6-1.2c-1.1-0.5-2.1-1.3-2.8-2.3c-0.8-1.1-1.2-2.3-1.2-3.7c0-1.8,0.7-3.6,2-5c1.3-1.5,3.1-2.2,5.3-2.2
		c1.9,0,3.8,0.7,5.3,1.8c0.5-0.4,0.8-0.9,1.2-1.5H298.4z"/>
	<path class="st0" d="M94.5,128.2C84,103.1,55.1,91.3,30.1,101.8s-36.8,39.4-26.3,64.5s39.4,36.8,64.4,26.3
		c18.2-7.7,30.1-25.6,30.2-45.4C98.3,140.8,97.1,134.3,94.5,128.2z M49.3,195.3c-26.5,0-48-21.6-48-48s21.6-48,48-48s48,21.6,48,48
		S75.8,195.3,49.3,195.3z"/>
	<path class="st0" d="M88,123.1l-0.2,0.1l0.3,0.7l-3.8,2.1l-0.3-0.7l-0.1,0.1l1.2,2.1l0.2-0.1l-0.4-0.7l1.8-1.1l0.1,0.2
		c0.1,0.2,0.2,0.3,0.3,0.5c0,0.2,0,0.3-0.1,0.3c-0.2,0.2-0.3,0.3-0.5,0.4l0.1,0.2l1.7-1l-0.1-0.2c-0.2,0.1-0.4,0.2-0.6,0.2
		c-0.2,0-0.3-0.1-0.3-0.2c-0.1-0.1-0.2-0.3-0.3-0.4l-0.1-0.2l1.8-1l0.5,0.8c0.2,0.3,0.3,0.5,0.3,0.8c0,0.3-0.2,0.4-0.3,0.6
		c-0.1,0.1-0.3,0.3-0.3,0.3l0.1,0.2l1.2-0.8L88,123.1z M86.3,120.4c-0.3-0.5-0.9-0.8-1.5-0.8c-0.7-0.1-1.3,0.1-1.8,0.5
		c-0.5,0.3-0.8,0.8-0.9,1.4c-0.2,0.6-0.1,1.2,0.3,1.7c0.3,0.5,0.9,0.8,1.5,0.8c1.3,0.2,2.5-0.8,2.8-2
		C86.7,121.5,86.6,120.9,86.3,120.4z M86.2,121.7c-0.3,0.3-0.7,0.7-1,0.9c-0.4,0.3-0.8,0.6-1.3,0.8c-0.3,0.2-0.6,0.2-0.8,0.1
		c-0.3-0.1-0.4-0.3-0.5-0.4c-0.2-0.3-0.3-0.5-0.3-0.8c0.1-0.3,0.2-0.5,0.4-0.7c0.3-0.3,0.6-0.5,0.9-0.8c0.4-0.3,0.8-0.6,1.3-0.8
		c0.3-0.1,0.5-0.1,0.8,0c0.3,0.1,0.4,0.3,0.6,0.4c0.2,0.2,0.3,0.4,0.3,0.7C86.4,121.4,86.4,121.6,86.2,121.7z M82.9,116.3
		c-0.1,0-0.3,0.1-0.3,0c-0.1-0.3-0.2-0.7-0.4-0.9c-0.3-0.3-0.6-0.4-1-0.4c-0.3,0-0.7,0.2-0.9,0.4c-0.2,0.2-0.3,0.4-0.3,0.7
		c-0.1,0.3,0,0.4,0.1,0.7c0.1,0.3,0.3,0.5,0.4,0.8c0.2,0.3,0.3,0.5,0.3,0.8c0,0.3-0.1,0.4-0.3,0.6c-0.2,0.2-0.5,0.3-0.8,0.3
		c-0.3,0-0.6-0.2-0.8-0.3c-0.2-0.3-0.3-0.5-0.3-0.8c0-0.3,0.1-0.8,0.3-1.1l-0.1-0.1l-0.9,0.9l0.1,0.1h0.4c0,0.4,0.2,0.8,0.5,1.1
		c0.3,0.3,0.7,0.5,1.1,0.5c0.4,0,0.8-0.2,1.1-0.5c0.2-0.2,0.3-0.4,0.4-0.7c0.1-0.3,0.1-0.5,0-0.8c-0.1-0.3-0.3-0.6-0.4-0.8
		c-0.2-0.3-0.3-0.5-0.3-0.8c0-0.2,0-0.3,0.2-0.5c0.2-0.2,0.4-0.3,0.6-0.2c0.3,0,0.5,0.2,0.8,0.3c0.4,0.4,0.4,1,0.1,1.7l0.1,0.1
		l0.8-0.8L82.9,116.3z M77.3,111.2l-1.1,1.1l0.2,0.1c0.3-0.3,0.7-0.4,1-0.6c0.3,0,0.5,0,0.8,0.3l0.3,0.3l-2.8,3.3l-0.7-0.5l-0.1,0.2
		l1.9,1.6l0.1-0.2l-0.7-0.5l2.8-3.3l0.3,0.3c0.3,0.2,0.3,0.4,0.3,0.7c0,0.4-0.2,0.8-0.4,1.1l0.2,0.1l0.9-1.3L77.3,111.2z
		 M75.3,109.7l-0.1,0.2l0.7,0.4l-1.7,2.6l0,0v-3.9l-1.5-1l-0.1,0.2l0.6,0.4l-2.3,3.6l-0.6-0.4l-0.1,0.2l1.3,0.9l0.1-0.2l-0.7-0.4
		l2.4-3.6l0,0v5.5l0.1,0.1l2.5-3.8l0.6,0.4l0.1-0.2L75.3,109.7z M68,105.6l-0.1,0.2l0.7,0.3l-1.9,3.8l-0.7-0.3l-0.1,0.2l3.7,1.8
		l0.8-1.3l-0.2-0.1c-0.2,0.3-0.4,0.6-0.8,0.8c-0.3,0.1-0.7,0-1.2-0.2l-0.8-0.4l1-1.9l0.3,0.2c0.2,0.1,0.3,0.3,0.4,0.4
		c0.1,0.3,0,0.5-0.2,0.8l0.2,0.1l0.9-1.8l-0.2-0.1c-0.1,0.2-0.3,0.3-0.4,0.5c-0.1,0.1-0.3,0.1-0.3,0.1s-0.3-0.1-0.3-0.2l-0.3-0.2
		l0.9-1.8l0.9,0.5c0.3,0.1,0.6,0.3,0.8,0.7c0.1,0.3,0.1,0.6,0,0.9l0.2,0.1l0.5-1.2L68,105.6z M66.4,106c-0.1-0.4-0.3-0.8-0.5-1.1
		c-0.3-0.3-0.7-0.5-1.1-0.7l-2.1-0.8l-0.1,0.2l0.7,0.3l-1.5,4l-0.7-0.3l-0.1,0.2l2,0.8c0.4,0.2,0.8,0.3,1.2,0.3
		c0.4,0,0.8-0.2,1.1-0.4c0.4-0.3,0.7-0.7,0.8-1.1C66.4,106.9,66.4,106.4,66.4,106z M65.5,106.8c-0.2,0.3-0.3,0.8-0.5,1.1
		c-0.1,0.3-0.3,0.4-0.5,0.6c-0.2,0.2-0.4,0.2-0.6,0.2c-0.3,0-0.5-0.1-0.8-0.2l-0.6-0.2l1.5-4l0.6,0.3c0.3,0.1,0.5,0.3,0.8,0.4
		c0.2,0.2,0.3,0.4,0.3,0.7C65.8,106,65.7,106.4,65.5,106.8L65.5,106.8z M60.2,102.9v0.2l0.8,0.2l-0.6,2.7c-0.1,0.3-0.2,0.7-0.3,1
		c-0.2,0.2-0.3,0.3-0.5,0.3c-0.3,0.1-0.5,0.1-0.8,0c-0.3,0-0.5-0.2-0.7-0.3c-0.1-0.2-0.2-0.4-0.2-0.6c0-0.3,0.1-0.6,0.2-0.8l0.6-2.7
		l0.7,0.2v-0.2l-2.2-0.5v0.2l0.7,0.2l-0.7,2.8c-0.1,0.3-0.1,0.6-0.2,0.9c0,0.3,0.1,0.5,0.3,0.7c0.3,0.3,0.7,0.4,1,0.5
		c0.3,0.1,0.5,0.1,0.7,0.1c0.3,0,0.4-0.1,0.7-0.2c0.2-0.1,0.3-0.3,0.4-0.4c0.2-0.3,0.3-0.6,0.3-0.8l0.7-2.8l0.8,0.2v-0.2L60.2,102.9
		z M52.3,101.7l-0.3,1.6h0.2c0.1-0.4,0.3-0.8,0.6-1.1c0.2-0.2,0.5-0.3,0.8-0.3H54l-0.5,4.3l-0.8-0.1v0.2l2.5,0.3v-0.2l-0.8-0.1
		l0.5-4.3h0.3c0.3,0,0.5,0.2,0.7,0.4c0.2,0.3,0.3,0.8,0.3,1.2h0.2l0.1-1.6L52.3,101.7z M51.2,104c-0.1-0.3-0.3-0.4-0.5-0.5
		c-0.3-0.1-0.6-0.3-0.9-0.3c-0.3,0-0.6-0.2-0.8-0.3c-0.2-0.1-0.3-0.3-0.3-0.4c0-0.3,0.1-0.4,0.3-0.6c0.2-0.2,0.5-0.3,0.8-0.3
		c0.6,0,1,0.4,1.2,1.1H51v-1.2h-0.2c-0.1,0.1-0.2,0.2-0.3,0.3c-0.3-0.3-0.7-0.3-1-0.3c-0.4,0-0.8,0.1-1,0.4
		c-0.3,0.3-0.4,0.6-0.4,0.9c0,0.3,0.1,0.5,0.2,0.7c0.1,0.2,0.3,0.3,0.5,0.4c0.3,0.1,0.6,0.2,0.8,0.3c0.3,0,0.6,0.2,0.8,0.3
		c0.2,0.2,0.3,0.4,0.3,0.7c0,0.3-0.2,0.6-0.3,0.8c-0.3,0.2-0.5,0.3-0.8,0.3s-0.6-0.1-0.8-0.3c-0.3-0.3-0.5-0.6-0.6-0.9H48v1.3h0.1
		l0.3-0.3c0.3,0.3,0.7,0.4,1.1,0.4c0.4,0,0.8-0.2,1.1-0.4c0.3-0.3,0.5-0.7,0.5-1.1C51.4,104.6,51.3,104.3,51.2,104L51.2,104z
		 M45.8,104c-0.1-0.4-0.3-0.9-0.5-1.3c-0.3-0.3-0.6-0.6-1-0.7s-0.8-0.1-1.3,0l-2.2,0.3v0.2l0.8-0.1l0.6,4.3l-0.8,0.1v0.2l2.2-0.3
		c0.4-0.1,0.8-0.2,1.2-0.3c0.3-0.3,0.6-0.5,0.8-0.9C45.8,105,45.9,104.5,45.8,104L45.8,104z M44.9,105.1c0,0.3-0.1,0.5-0.2,0.8
		c-0.1,0.2-0.3,0.3-0.5,0.4c-0.3,0.1-0.5,0.2-0.8,0.2l-0.6,0.1l-0.6-4.3l0.6-0.1c0.3,0,0.6,0,0.8,0c0.3,0.1,0.5,0.3,0.6,0.4
		c0.3,0.4,0.3,0.8,0.4,1.3C44.9,104.3,44.9,104.8,44.9,105.1z M40.7,105.6h-0.2c0.1,0.3,0.1,0.8-0.1,1.1c-0.2,0.3-0.5,0.5-1,0.6
		l-0.9,0.3l-0.5-2.1l0.4-0.1c0.2-0.1,0.4-0.1,0.6,0c0.2,0.2,0.3,0.4,0.4,0.7l0.2-0.1l-0.5-1.9l-0.2,0.1c0.1,0.2,0.1,0.4,0,0.7
		c0,0.1-0.1,0.3-0.3,0.3c-0.1,0.1-0.3,0.1-0.3,0.2l-0.4,0.1l-0.5-1.9l0.9-0.3c0.3-0.1,0.7-0.1,1,0c0.3,0.2,0.4,0.4,0.6,0.7l0.2-0.1
		l-0.4-1.2l-3.8,1l0.1,0.2l0.8-0.2l1.1,4.2l-0.8,0.2l0.1,0.2l4-1L40.7,105.6z M35.8,108.4l-0.8,0.3l-1.5-4l0.3-0.2
		c0.3-0.1,0.5-0.1,0.8,0c0.3,0.3,0.6,0.5,0.8,0.8l0.2-0.1l-0.7-1.4l-3.7,1.4l0.4,1.5l0.2-0.1c-0.1-0.4-0.1-0.8,0-1.2
		c0.1-0.3,0.3-0.4,0.6-0.5l0.3-0.2l1.5,4l-0.8,0.3l0.1,0.2L35.8,108.4L35.8,108.4z M33,109.4l-0.6,0.3l-3.5-3.3l-0.1,0.1l0.5,4.8
		l-0.6,0.3l0.1,0.2l1.5-0.8l-0.1-0.2l-0.8,0.4l-0.2-1.3l1.3-0.7l1,0.9l-0.7,0.3l0.1,0.2l2-1L33,109.4z M29.4,109.6l-0.3-2l0,0
		l1.4,1.3L29.4,109.6z M28.5,111.7l-0.7,0.4l-2.3-3.7l0.7-0.4l-0.1-0.2l-2,1.3l0.1,0.2l0.7-0.4l2.3,3.6l-0.7,0.4l0.1,0.2L28.5,111.7
		L28.5,111.7z M25.4,112.2l-0.2,0.1c0.2,0.3,0.3,0.8,0.2,1.2c-0.1,0.3-0.2,0.5-0.4,0.8c-0.2,0.2-0.3,0.2-0.6,0.3
		c-0.3,0-0.5-0.1-0.7-0.3c-0.3-0.3-0.7-0.8-1-1.2c-0.6-0.8-0.8-1.3-0.8-1.6c0-0.3,0.1-0.7,0.4-0.8c0.5-0.4,1.1-0.3,1.8,0.3l0.1-0.1
		l-0.8-1.1l-0.1,0.1c0,0.2,0.1,0.3,0.1,0.4c-0.4-0.1-0.8,0.1-1.1,0.3c-0.4,0.3-0.7,0.8-0.7,1.4c0,0.7,0.2,1.3,0.6,1.8
		c0.3,0.5,0.9,0.8,1.5,1c0.5,0.2,1.1,0.1,1.5-0.3c0.3-0.3,0.6-0.6,0.7-1c0.2,0,0.3,0.1,0.4,0.2l0.1-0.1L25.4,112.2z M21.5,114
		c-0.4-0.4-1-0.8-1.6-0.8c-0.6-0.1-1.2,0.1-1.6,0.4c-0.4,0.4-0.7,1-0.7,1.6c0,0.7,0.3,1.3,0.8,1.8c0.4,0.4,1,0.7,1.6,0.8
		c0.6,0.1,1.2-0.1,1.7-0.5c0.4-0.4,0.7-1,0.6-1.6C22.1,115,21.9,114.5,21.5,114z M21.4,117.2c-0.2,0.3-0.5,0.3-0.8,0.3
		c-0.3,0-0.5-0.2-0.8-0.3c-0.3-0.3-0.6-0.5-0.8-0.8c-0.3-0.3-0.7-0.8-0.9-1.2c-0.2-0.3-0.2-0.5-0.1-0.8c0.1-0.3,0.2-0.4,0.4-0.6
		c0.2-0.2,0.3-0.3,0.6-0.3c0.3-0.1,0.5,0,0.7,0.1c0.4,0.3,0.8,0.6,1,0.9c0.3,0.4,0.7,0.8,1,1.3c0.2,0.3,0.3,0.5,0.2,0.8
		C21.6,116.8,21.6,117,21.4,117.2L21.4,117.2z M19,119.1c0-0.4-0.3-0.8-0.6-1.1c-0.2-0.2-0.4-0.3-0.8-0.3c-0.3-0.1-0.5,0-0.8,0.1
		c-0.3,0.2-0.6,0.3-0.8,0.5c-0.3,0.2-0.5,0.3-0.8,0.4c-0.2,0-0.3,0-0.5-0.2c-0.2-0.2-0.3-0.3-0.3-0.6c0-0.3,0.1-0.6,0.3-0.8
		c0.4-0.4,0.9-0.5,1.6-0.2l0.1-0.1l-0.9-0.8l-0.1,0.1c0,0.1,0.1,0.3,0.1,0.3c-0.3,0.1-0.7,0.3-0.9,0.5c-0.3,0.3-0.4,0.7-0.3,1
		c0,0.3,0.2,0.7,0.4,0.9c0.3,0.3,0.9,0.4,1.3,0.2c0.3-0.2,0.5-0.3,0.8-0.5c0.3-0.2,0.5-0.3,0.8-0.4c0.3,0,0.4,0.1,0.7,0.3
		c0.3,0.2,0.3,0.5,0.3,0.8c0,0.3-0.1,0.6-0.3,0.8c-0.2,0.3-0.5,0.3-0.8,0.4c-0.3,0-0.8,0-1.1-0.2l-0.1,0.1l1,0.8l0.1-0.1v-0.4
		c0.4-0.1,0.8-0.3,1-0.5C18.9,120,19,119.6,19,119.1L19,119.1z M16.6,122c-0.1-0.4-0.3-0.8-0.7-1c-0.3-0.2-0.5-0.3-0.8-0.3
		s-0.5,0-0.7,0.2c-0.3,0.2-0.5,0.3-0.8,0.6c-0.2,0.3-0.4,0.4-0.8,0.5c-0.2,0.1-0.3,0-0.5-0.1c-0.2-0.2-0.3-0.3-0.3-0.6
		c0-0.3,0.1-0.6,0.3-0.8c0.3-0.5,0.9-0.6,1.6-0.3l0.1-0.2l-1-0.7l-0.1,0.1c0.1,0.1,0.1,0.3,0.1,0.3c-0.3,0.1-0.7,0.3-0.8,0.6
		c-0.3,0.3-0.3,0.7-0.3,1.1c0.1,0.3,0.3,0.7,0.5,0.8c0.2,0.2,0.4,0.3,0.7,0.3s0.5,0,0.7-0.2c0.3-0.2,0.5-0.3,0.7-0.6
		c0.2-0.3,0.5-0.4,0.8-0.5c0.3,0,0.5,0,0.7,0.2c0.3,0.2,0.3,0.4,0.3,0.8c0,0.3-0.1,0.6-0.3,0.8c-0.2,0.3-0.4,0.4-0.8,0.5
		s-0.8,0.1-1.1-0.1l-0.1,0.1l1.1,0.8l0.1-0.1l-0.1-0.4c0.3-0.1,0.7-0.3,0.9-0.7C16.5,122.7,16.7,122.3,16.6,122L16.6,122z M15,124.4
		l-0.3,0.5L9.9,124l-0.1,0.1l3.1,3.8l-0.3,0.6l0.2,0.1l0.8-1.4l-0.2-0.1l-0.4,0.8l-0.8-1.1l0.8-1.3l1.3,0.3l-0.4,0.7l0.2,0.1
		L15,124.4L15,124.4z M12,126.6l-1.3-1.5l0,0l1.9,0.4L12,126.6z"/>
	<path class="st0" d="M93,153.7v0.2c0.3,0.1,0.7,0.3,0.9,0.6c0.2,0.3,0.3,0.7,0.1,1.2l-0.2,0.9l-2.1-0.4l0.1-0.4
		c0-0.2,0.2-0.4,0.3-0.5c0.3-0.1,0.5-0.2,0.8-0.1V155l-1.9-0.4v0.2c0.2,0,0.4,0.1,0.6,0.3c0.1,0.1,0.2,0.2,0.2,0.3
		c0,0.1,0,0.3,0,0.3l-0.1,0.4l-1.9-0.4l0.2-1c0-0.3,0.2-0.7,0.4-0.8c0.3-0.2,0.6-0.3,0.8-0.2v-0.2l-1.3-0.2l-0.8,3.8h0.2l0.2-0.8
		l4.2,0.8l-0.2,0.8h0.2l0.8-4L93,153.7z M92.9,160c-0.2-0.5-0.6-0.8-1-0.9l0.2-0.7l-0.2-0.1l-0.8,2.3l0.2,0.1l0.3-0.8l0.3,0.1
		c0.3,0.1,0.5,0.2,0.7,0.3c0.2,0.1,0.3,0.3,0.3,0.4s0,0.3-0.1,0.6c-0.1,0.5-0.6,0.8-1.1,0.7c-0.6-0.1-1.1-0.3-1.7-0.4
		c-0.3-0.1-0.7-0.3-1-0.4c-0.3-0.1-0.4-0.3-0.5-0.5c-0.1-0.3-0.1-0.6,0-0.8c0.3-0.7,0.8-1,1.6-0.9l0.1-0.2l-1.3-0.3l-0.1,0.2
		c0.1,0.1,0.2,0.2,0.1,0.3c0,0.1-0.1,0.1-0.2,0.2c-0.3,0.2-0.4,0.5-0.6,0.8c-0.2,0.6-0.1,1.2,0.3,1.7c0.7,1.1,2.1,1.5,3.3,1.1
		c0.6-0.2,1-0.7,1.2-1.3C93,160.8,93,160.3,92.9,160L92.9,160z M90.4,163.5l-0.1,0.2c0.3,0.2,0.6,0.4,0.8,0.8
		c0.1,0.4,0.1,0.8-0.2,1.2l-0.4,0.8l-1.9-0.8l0.2-0.4c0.1-0.2,0.3-0.3,0.4-0.4c0.3-0.1,0.5,0,0.8,0.1l0.1-0.2l-1.8-0.8l-0.1,0.2
		c0.2,0.1,0.3,0.3,0.5,0.4c0.1,0.1,0.1,0.3,0.1,0.3s-0.1,0.3-0.1,0.3l-0.2,0.4l-1.8-0.8l0.4-0.9c0.1-0.3,0.3-0.6,0.7-0.8
		c0.3-0.1,0.6-0.1,0.9,0l0.1-0.2l-1.2-0.4l-1.6,3.6l0.2,0.1l0.3-0.7l3.9,1.8l-0.3,0.7l0.2,0.1l1.7-3.8L90.4,163.5z M88.4,167.9
		l-0.1,0.2c0.2,0.2,0.3,0.3,0.5,0.5c0.1,0.2,0.2,0.3,0.3,0.4c0.1,0.2,0.1,0.3,0,0.4c-0.1,0.2-0.1,0.3-0.2,0.4l-0.5,0.9l-3.7-2.2
		l0.4-0.7l-0.2-0.1l-1.2,2l0.2,0.1l0.3-0.7l3.7,2.2l-0.3,0.7l0.2,0.1l2-3.3L88.4,167.9z M86,171.9l-0.1,0.2c0.2,0.2,0.3,0.3,0.4,0.6
		c0.1,0.2,0.2,0.3,0.2,0.4c0,0.2,0,0.3,0,0.4c-0.1,0.2-0.2,0.3-0.3,0.4l-0.7,0.8l-3.4-2.6l0.5-0.7l-0.2-0.1l-1.3,1.9l0.2,0.1
		l0.4-0.6l3.4,2.6l-0.4,0.6l0.2,0.1l2.3-3.2L86,171.9z M83.3,176.9c-0.1-1.3-1.2-2.3-2.5-2.3c-0.6-0.1-1.2,0.2-1.5,0.6
		c-0.4,0.4-0.6,1-0.5,1.6c0.1,0.7,0.3,1.3,0.8,1.7c0.4,0.4,1,0.6,1.6,0.7c0.6,0.1,1.2-0.2,1.6-0.6C83.2,178,83.4,177.5,83.3,176.9
		L83.3,176.9z M83,177.7c-0.1,0.3-0.2,0.4-0.3,0.6c-0.2,0.3-0.4,0.3-0.8,0.4c-0.3,0-0.5-0.1-0.8-0.3c-0.3-0.3-0.6-0.5-0.9-0.8
		c-0.4-0.3-0.8-0.7-1-1.1c-0.2-0.2-0.3-0.5-0.2-0.8c0.1-0.3,0.2-0.4,0.3-0.7c0.2-0.2,0.3-0.3,0.6-0.3c0.3-0.1,0.5,0,0.7,0.1
		c0.4,0.3,0.8,0.5,1.1,0.8c0.4,0.3,0.8,0.8,1.1,1.2C83,177.1,83.1,177.5,83,177.7L83,177.7z M79.7,179.5L79.7,179.5
		c0.1,0.4,0.2,0.8,0.2,1.2c0,0.3-0.2,0.6-0.4,0.8c-0.2,0.2-0.3,0.3-0.6,0.3c-0.3,0-0.5-0.1-0.7-0.2c-0.4-0.3-0.8-0.7-1.1-1.1
		c-0.6-0.7-0.9-1.2-1-1.5s0.1-0.7,0.3-0.8c0.5-0.4,1.1-0.4,1.8,0.2l0.1-0.1l-0.9-1l-0.1,0.1c0.1,0.2,0.1,0.3,0.1,0.4
		c-0.4,0-0.8,0.1-1.1,0.3c-0.4,0.3-0.6,0.9-0.6,1.4c0,0.7,0.3,1.3,0.7,1.7c0.4,0.5,0.9,0.8,1.6,0.9c0.8,0.3,1.8-0.3,2-1.2
		c0-0.1,0-0.2,0-0.3c0.2,0,0.3,0.1,0.4,0.2l0.1-0.1L79.7,179.5z M74.7,185l-0.7,0.4l-1.1-1.8V181l0.5-0.3l-0.1-0.2l-1.4,0.9l0.1,0.2
		l0.8-0.4v2.4l-2.3-1l0.7-0.4l-0.1-0.2l-1.9,1.3l0.1,0.2l0.5-0.3l2.6,1.2l1,1.7l-0.7,0.4l0.1,0.2l2-1.3L74.7,185z M70.2,187.7
		l-0.8,0.3l-1.8-3.8l0.3-0.2c0.3-0.1,0.5-0.2,0.8,0c0.3,0.2,0.7,0.5,0.8,0.8l0.2-0.1l-0.8-1.3l-3.6,1.8l0.6,1.5l0.2-0.1
		c-0.1-0.4-0.2-0.8-0.1-1.2c0.1-0.3,0.3-0.5,0.5-0.6l0.3-0.2l1.8,3.8l-0.8,0.3l0.1,0.2l2.3-1.1L70.2,187.7z M66.5,189.4l-0.8,0.3
		l-1.5-4l0.8-0.3l-0.1-0.2l-2.2,0.8l0.1,0.2l0.7-0.3l1.5,4l-0.7,0.3l0.1,0.2l2.2-0.8L66.5,189.4z M62.8,191.1H63l-1.2-4.4l0.7-0.2
		l-0.1-0.2l-1.6,0.4l0.1,0.2l0.8-0.2l0.8,3l0,0l-2.9-2.6l-1.7,0.5l0.1,0.2l0.8-0.2l1.1,4.2l-0.7,0.2l0.1,0.2l1.6-0.4l-0.1-0.2
		l-0.8,0.2l-1.1-4.2l0,0L62.8,191.1z M56.8,187.8l0.8-0.1v-0.2l-1.7,0.3v0.2l0.8-0.1l0.4,2.7c0.1,0.3,0.1,0.7,0,1
		c-0.1,0.2-0.2,0.4-0.4,0.5c-0.2,0.2-0.4,0.3-0.7,0.3c-0.3,0.1-0.5,0-0.8-0.1c-0.2-0.1-0.3-0.3-0.3-0.5c-0.1-0.3-0.2-0.6-0.2-0.8
		l-0.4-2.7l0.8-0.1V188l-2.2,0.3v0.2l0.7-0.1l0.4,2.8c0,0.3,0.1,0.6,0.3,0.9c0.1,0.3,0.3,0.4,0.5,0.5c0.3,0.2,0.8,0.2,1.2,0.1
		c0.3,0,0.5-0.1,0.7-0.2c0.2-0.1,0.4-0.2,0.5-0.3c0.2-0.2,0.3-0.3,0.3-0.5c0-0.3,0-0.6,0-0.9L56.8,187.8z M52.4,192.7h-0.7l-0.1-4.3
		h0.7v-0.2h-1.6l-1,3.3l0,0l-1-3.3H47v0.2h0.7l0.1,4.3h-0.7v0.2h1.6v-0.2H48l-0.1-4.3l0,0l1.4,4.5h0.2l1.3-4.6l0,0l0.1,4.3h-0.7v0.2
		L52.4,192.7L52.4,192.7z M46.6,188.5v-0.2l-1.6-0.2l-1.4,3.2l0,0L43,188l-1.7-0.3v0.2L42,188l-0.6,4.3l-0.7-0.1v0.2l1.6,0.2v-0.2
		l-0.7-0.1l0.6-4.3l0,0l0.8,4.7h0.2l1.9-4.3l0,0l-0.6,4.3l-0.7-0.1v0.2l2.2,0.3v-0.2l-0.7-0.1l0.6-4.3L46.6,188.5z M40.3,188
		c-0.3-0.5-0.7-0.9-1.3-1.1s-1.2,0-1.7,0.3c-0.6,0.3-0.9,0.9-1.1,1.5c-0.2,0.6-0.1,1.3,0.3,1.8c0.3,0.6,0.7,1,1.3,1.1
		c0.6,0.2,1.2,0,1.7-0.3C40.5,190.6,40.9,189.2,40.3,188z M39.6,189.3c-0.1,0.5-0.3,1-0.5,1.5c-0.1,0.3-0.3,0.5-0.6,0.6
		c-0.3,0.1-0.5,0.1-0.7,0c-0.3-0.1-0.6-0.3-0.7-0.5c-0.1-0.3-0.2-0.5-0.1-0.8c0.1-0.4,0.2-0.8,0.3-1.2c0.1-0.5,0.3-1,0.5-1.4
		c0.1-0.3,0.3-0.4,0.6-0.5c0.3-0.1,0.5-0.1,0.7,0c0.3,0.1,0.4,0.2,0.6,0.3c0.2,0.2,0.3,0.4,0.3,0.7
		C39.8,188.4,39.7,188.9,39.6,189.3L39.6,189.3z M36.3,186.1c-0.1,0.1-0.2,0.2-0.3,0.3c-0.2-0.3-0.5-0.7-0.8-0.8
		c-0.5-0.2-1.1-0.1-1.5,0.2c-0.6,0.3-1,0.8-1.2,1.4c-0.3,0.6-0.3,1.3,0,1.8c0.2,0.5,0.5,0.9,1,1.1c0.4,0.2,0.8,0.2,1.3,0
		c0.1,0.2,0.1,0.3,0.1,0.4l0.2,0.1l0.6-1.3l-0.2-0.1c-0.3,0.3-0.5,0.6-0.9,0.8c-0.3,0.1-0.6,0.1-0.8,0c-0.2-0.1-0.3-0.2-0.5-0.3
		c-0.2-0.2-0.2-0.4-0.2-0.7c0.1-0.5,0.3-1,0.4-1.5c0.3-0.8,0.7-1.4,0.8-1.6c0.3-0.2,0.6-0.3,0.9-0.1c0.7,0.3,0.8,0.8,0.8,1.6
		l0.2,0.1l0.5-1.3L36.3,186.1z M29.2,183.1l-0.1,0.2l0.7,0.3l-2,3.8l-0.7-0.3l-0.1,0.2l2.1,1.1l0.1-0.2l-0.7-0.3l2-3.8l0.7,0.3
		l0.1-0.2L29.2,183.1z M27.4,182l-0.1,0.2l0.7,0.4l-1.7,2.6l0,0v-3.9l-1.5-1l-0.1,0.2l0.7,0.4l-2.3,3.6l-0.6-0.4l-0.1,0.2l1.4,0.9
		l0.1-0.2l-0.7-0.4l2.3-3.6l0,0v5.5l0.1,0.1l2.5-3.8l0.6,0.4l0.1-0.2L27.4,182z M23,178.6L23,178.6l-4.3,2.3l-0.5-0.4l-0.1,0.2
		l1.3,1.1l0.1-0.2l-0.7-0.6l1.2-0.7l1.1,0.9l-0.5,1.3l-0.6-0.5l-0.1,0.2l1.7,1.4l0.1-0.2l-0.5-0.4L23,178.6z M20.1,180.3l1.8-1l0,0
		l-0.7,1.8L20.1,180.3z M18.2,174.1l-0.2,0.1l0.5,0.5l-3.1,2.9l-0.5-0.5l-0.2,0.2l2.7,2.8l1.2-0.9l-0.1-0.1
		c-0.2,0.1-0.4,0.3-0.7,0.3c-0.2,0.1-0.3,0.1-0.5,0.1s-0.3,0-0.4-0.1c-0.2-0.1-0.3-0.2-0.3-0.3l-0.8-0.8l3.1-2.9l0.5,0.6l0.2-0.1
		L18.2,174.1z M16.7,172c-0.3-0.5-0.9-0.8-1.5-0.8c-0.7-0.1-1.3,0.2-1.8,0.5c-0.5,0.3-0.8,0.9-0.9,1.5c-0.2,0.6-0.1,1.2,0.3,1.7
		c0.3,0.5,0.9,0.8,1.5,0.8c1.3,0.2,2.5-0.8,2.8-2C17.1,173,17,172.4,16.7,172z M16.6,173.4c-0.3,0.3-0.6,0.7-1,0.9
		c-0.4,0.3-0.8,0.6-1.3,0.9c-0.3,0.2-0.6,0.2-0.8,0.1c-0.3-0.1-0.4-0.3-0.6-0.4c-0.2-0.3-0.3-0.5-0.3-0.8c0.1-0.3,0.2-0.5,0.4-0.7
		c0.3-0.3,0.6-0.5,0.9-0.8c0.4-0.3,0.8-0.6,1.3-0.8c0.3-0.1,0.5-0.2,0.8,0c0.3,0.1,0.4,0.3,0.6,0.4s0.3,0.4,0.3,0.6
		C16.8,172.9,16.7,173.2,16.6,173.4z M13.4,169.4c-0.2,0.1-0.3,0.3-0.3,0.4c-0.1,0.2,0,0.3,0.1,0.5c0.1,0.1,0.2,0.2,0.3,0.3
		c0.1,0,0.3,0,0.3-0.1c0.1-0.1,0.2-0.2,0.2-0.3c0-0.1,0-0.2-0.1-0.3c-0.1-0.2-0.3-0.2-0.4-0.2c-0.1,0-0.2,0-0.2,0s0-0.2,0.2-0.3
		c0.3-0.2,0.7-0.2,1.2,0v-0.2C14.2,169.2,13.8,169.3,13.4,169.4z M12.9,166.3l-0.2,0.1l0.3,0.7l-3.8,2.1L9,168.4l-0.2,0.1l1.2,2.1
		l0.2-0.1l-0.3-0.7l3.8-2.1l0.4,0.7l0.2-0.1L12.9,166.3z M12,164.4l-1-2.2l-0.2,0.1l0.3,0.7l-3.9,1.8l-0.3-0.7l-0.2,0.1l0.9,2.1
		l0.3,0l-0.3-0.7l1.8-0.8l0.3,0.6c0.3,0.6,0.6,0.9,0.9,1.1c0.3,0.2,0.7,0.2,1,0c0.3-0.2,0.5-0.4,0.7-0.8
		C12.3,165.3,12.3,164.8,12,164.4L12,164.4z M11.9,165.3c-0.2,0.2-0.3,0.3-0.6,0.4c-0.3,0.2-0.5,0.2-0.8,0.2c-0.2,0-0.3-0.1-0.4-0.3
		s-0.3-0.3-0.3-0.5l-0.2-0.4l2-0.8l0.3,0.6c0.1,0.2,0.1,0.3,0.2,0.5C11.9,164.9,11.9,165.1,11.9,165.3L11.9,165.3z M10.4,159.9
		L10.4,159.9l-4.8-0.3L5.3,159l-0.2,0.1l0.5,1.6l0.2-0.1l-0.3-0.8l1.3,0.1l0.4,1.4l-1.1,0.8L6,161.3l-0.2,0.1l0.7,2.1l0.2-0.1
		l-0.2-0.6L10.4,159.9z M7.1,159.8l2,0.1l0,0l-1.6,1.2L7.1,159.8z M9.1,155.4H8.9l0.2,0.8l-2.3-1.5l-1.9,2.3l-0.2-0.8H4.5l0.4,2.3
		h0.2L5,158l2.3-2.7l1.8,1.3l0.2,0.7h0.2L9.1,155.4z M8.6,152.7H8.4l0.2,0.8l-4.2,0.8l-0.2-0.8H4.1l0.4,2.3h0.2l-0.2-0.8l4.2-0.8
		l0.2,0.8H9L8.6,152.7z"/>
	<path class="st0" d="M49.3,108.5c-21.4,0-38.8,17.4-38.8,38.8s17.4,38.8,38.8,38.8s38.8-17.4,38.8-38.8S70.7,108.5,49.3,108.5
		L49.3,108.5z M62.1,116.8L62.1,116.8l0.1-0.2l0.1-0.1l0,0l0.1-0.1v-0.1v-0.1v-0.2l-0.1-0.1l0,0l0,0l0,0l0,0l0.1,0.1h0.1h0.1h0.1
		l0.1,0.1h0.4l0,0h0.2h0.1l0,0h0.1l0.2,0.1h0.1h0.1h0.1H64h0.1h0.1l0,0l0,0v-0.2l0.1-0.1h0.1l0,0l0.1,0.2v0.1l0.1,0.1h0.3h0.1l0,0
		l0,0l0,0h0.3h0.2l0.2-0.1l0.3-0.1h0.1h0.1l0,0v0.1H66h0.1v0.1l-0.1,0.2l-0.2,0.2l-0.2,0.2l-0.1,0.1v0.1l-0.3,0.1l-0.3,0.1l-0.1,0.1
		h-0.1v-0.1l0,0h-0.4l0,0h-0.2h-0.1h-0.1l0,0h-0.1l-0.1-0.1V117l0,0l0,0h-0.3h-0.1h-0.1l0,0h-0.2l-0.2,0.1l-0.8,0.1h-0.3l-0.1-0.1
		L62.1,116.8L62.1,116.8z M67.7,120.9L67.7,120.9L67.7,120.9L67.7,120.9L67.7,120.9L67.7,120.9L67.7,120.9l-0.2,0.2l-0.2-0.1
		l-0.2,0.1l-0.1,0.1l0,0H67l0,0l-0.1,0.1h-0.1h-0.1l-0.2-0.2l0,0V121l0.1-0.1l0.1-0.1l0.1-0.1h0.1l0.1-0.1l0.1-0.1l0.2-0.1v-0.1l0,0
		l0.2-0.1h0.1h0.1l0,0l0.1,0.1v0.1l0,0V120.9L67.7,120.9z M55.1,177.9c-1.5,0.6-3,0.9-4.6,1h-0.2c-0.7,0.1-1.3,0.1-1.9,0h-0.2
		c-14-0.8-24-20.1-3.5-40.8l0.7,7.2l0,0c-6.4,12.1-3.2,19.7,1.9,22.1l0.2,0.1c1.2,0.6,2.5,0.8,3.8,0.8l0,0h0.2
		c4.1-0.2,8.1-3.3,8.6-9.7c-1.1,1.8-4.1,3.8-4.2,3.9c4.1-3.3,5.3-9.9,2.9-13.4c12.9,11.9,8.1,27-7.4,31.2
		C52.7,179.9,55.1,178.4,55.1,177.9L55.1,177.9z M50,182.6C50,182.6,50,182.6,50,182.6c0,0.1,0,0.1,0,0.2c0,0,0,0,0,0.1
		c0,0,0,0,0,0.1v0.1l-0.1,0.1h-0.1l0,0h-0.1l0,0h-0.1h-0.1h-0.1l0,0l0,0h-0.1h-0.2l0,0l0,0h-0.1h-0.1l0,0c0,0,0,0-0.1,0H49l0,0l0,0
		c0,0,0,0-0.1,0l0,0l0,0c0,0,0,0-0.1-0.1c0,0,0,0-0.1-0.1v-0.1l0,0l0,0l0,0l0,0l0,0l0,0l0,0l0,0l0,0v-0.1v-0.1l-0.3-3.3
		c0.7,0,1.3,0,1.9,0l-0.3,3.4C50.2,182.6,50.1,182.6,50,182.6L50,182.6z M43.3,126.4c0-0.1,0-0.2,0-0.2l0,0c0-0.1,0-0.1,0-0.2l0,0
		l0,0l0,0l0,0c0-0.1,0.1-0.3,0.1-0.3c0-0.1,0.1-0.3,0.1-0.4v-0.1l0,0l0.1-0.2l0.1-0.3l0.1-0.2c0,0,0-0.1,0.1-0.1l0,0l0,0l0.1-0.2
		c0-0.1,0.1-0.2,0.1-0.2L44,124l0,0l0.1-0.2c0.1-0.2,0.2-0.3,0.3-0.5c0.1-0.2,0.2-0.3,0.3-0.4l0.1-0.1l0.1-0.1l0,0
		c0,0,0-0.1,0.1-0.1c0-0.1,0.1-0.1,0.2-0.2l0,0c0-0.1,0.1-0.1,0.1-0.2c0-0.1,0.1-0.2,0.2-0.2l0.2-0.2c0.1-0.1,0.1-0.1,0.2-0.2
		c0,0,0,0,0.1-0.1l0.1-0.1l0.1-0.1l0.2-0.2l0.2-0.2c0.1-0.1,0.2-0.1,0.2-0.2c0.2-0.1,0.3-0.2,0.4-0.3c0.1-0.1,0.2-0.1,0.3-0.2
		l0.1-0.1l0.3-0.1l0.1-0.1l-0.1,0.1l-0.1,0.1l0,0l0,0v0.1l-0.1,0.1v0.1l-0.1,0.1l0,0c0,0.1-0.1,0.1-0.1,0.2l0,0v0.1l-0.1,0.1v0.1
		v0.1c0,0,0,0.1-0.1,0.1v0.1v0.1c0,0,0,0,0,0.1v0.1l0,0l-0.1,0.2c0,0,0,0.1,0,0.2l0,0l0,0l0,0v0.1l0,0v0.1v0.1l0,0c0,0,0,0,0,0.1
		c0,0,0,0,0,0.1l0,0v0.1v0.2c0-0.1,0.1-0.2,0.1-0.2c0-0.1,0.1-0.2,0.1-0.2c0-0.1,0.1-0.2,0.2-0.3s0.1-0.2,0.2-0.3l0.1-0.2v-0.1
		l0.1-0.2l0.1-0.1c-0.1,0.1-0.1,0.2-0.2,0.3c0.1-0.1,0.1-0.2,0.2-0.3v-0.1v-0.1l0.1-0.1c0.1-0.1,0.1-0.2,0.2-0.3l0.2-0.2l0.1-0.2
		l-0.1,0.2l0,0l0.1-0.1c0.1-0.1,0.1-0.2,0.2-0.2l0.1-0.2l0.1-0.1l0.1-0.1l0,0l-0.2,0.2l0.2-0.2c0,0,0,0,0.1-0.1l0.2-0.2l0.1-0.1
		l0.1-0.1l0.3-0.2l0.2-0.2l0.2-0.2l0.2-0.2l0.1-0.1l0.1-0.1l0.2-0.2c0,0,0.1,0,0.1-0.1l0.1-0.1l0,0l0,0l0.2-0.1l0.1-0.1l0.1-0.1
		l0.2-0.1l0.2-0.2L51,118L51,118l-0.3,0.2L51,118h0.1H51h0.1l0.2-0.1l0.1-0.1l0.2-0.1l-0.2,0.1v0.1c0,0,0,0,0,0.1l0,0v0.1l0,0v0.1
		v0.1l0,0v0.1v0.1l0,0l0,0v0.1c0,0,0,0,0,0.1v0.1v0.1l0,0l0,0v0.1v0.1l0,0l0,0c0,0,0,0.1,0,0.2c0,0.1,0,0.1,0,0.1l0,0l0,0l0,0l0,0
		v0.1v0.1l0,0v0.3v0.1v0.1v0.1v0.1v0.1v0.1v0.1v0.1v0.1l0,0l0,0l0,0v0.1l0,0l0,0l0,0v0.1l0,0v0.1c0,0,0,0,0,0.1l0,0v0.1v0.1v0.1
		c0,0,0,0,0,0.1l0,0v0.1v0.1v0.1v0.1v0.1v0.1l0,0c0,0,0,0,0,0.1v0.1v0.1c0,0,0,0,0,0.1l0,0l0,0l0,0v0.1v0.1l0,0
		c0.1,0.2,0.2,0.3,0.2,0.4l0,0c0,0.1,0.1,0.1,0.1,0.2l0.1,0.2l0.1-0.1l0.1-0.1l0,0l0,0l0,0l0,0l0,0l0.2-0.2c0,0,0,0,0.1-0.1l0.1-0.1
		l0.3-0.3l0.1-0.1l0.1-0.1l0,0l0,0c0.1,0,0.1-0.1,0.2-0.1l0.1-0.1l0.1-0.1l0,0l0,0l0,0l0,0l-0.3,0.2l0.3-0.2l0,0l0.1-0.1l0.3-0.2
		l-0.3,0.2l0.1-0.1l0.2-0.1h0.1l0.3-0.2c0,0.1,0,0.2,0,0.2c0,0.1,0,0.1,0,0.2c0,0.1,0,0.1,0,0.2c0,0.1,0,0.1,0,0.2s0,0.1,0,0.2l0,0
		v0.2c0,0.4,0,0.8,0.1,1.3c0,0.1,0,0.2,0.1,0.3c0-0.1,0-0.2-0.1-0.3c0,0.1,0,0.2,0.1,0.3l0,0c0,0.1,0.1,0.2,0.1,0.3l0,0l0,0
		c0,0.1,0.1,0.2,0.1,0.3l0,0l0,0v0.1l0,0l0,0l0,0l0,0l0,0c0.1,0.3,0.3,0.5,0.3,0.8l0.1,0.2l0.1,0.2c0,0.1,0.1,0.2,0.1,0.3
		c0,0,0,0.1,0.1,0.1c0,0,0,0,0,0.1v0.1v0.1v0.1v0.1v0.1v0.1v0.1v0.1l0,0v0.1v0.1l0,0v0.1l0,0v0.1v0.1c0,0,0,0,0,0.1v0.1l0,0
		c0,0,0,0,0,0.1l0,0l0,0v0.1l0,0v0.2c0,0.1,0,0.1,0,0.2l-5.8,1.3l-5.9-1.3c0,0-0.1-0.1-0.1-0.2c0,0,0-0.1-0.1-0.1v-0.1
		c0-0.1,0-0.1-0.1-0.2c0-0.1-0.1-0.3-0.1-0.3v-0.2v-0.1v-0.1c0-0.1,0-0.2,0-0.3c0-0.2,0-0.2,0-0.2L43.3,126.4z M47.5,167.4
		l-1.9-22.1l-1.2-14l5,1.1l0,0l0,0l5-1.1v0.3l-0.3,2.7l-2.9,34C50,168.3,48.6,168,47.5,167.4z M49.4,132.3l-5.1-1.2l-0.9-2.9l6,1.3
		l5.8-1.3h0.1h0.2l-0.1,0.3l-0.8,2.5L49.4,132.3z M55.2,127.7L55.2,127.7L55.2,127.7z M54.3,124.9L54.3,124.9z M54.1,124.4
		L54.1,124.4z M54.1,124.2c0-0.1,0-0.2-0.1-0.3C54,124.1,54.1,124.1,54.1,124.2z M58.2,131.6c-1.2,0.6-2.3,1.3-3.3,2l-0.3,0.3
		l0.3-2.6l0.8-2.3c0.2,0,0.3,0.1,0.5,0.1h0.3h0.3c0.2,0,0.3,0,0.4,0H57c0.3,0,0.5,0,0.8,0h0.3c0.3,0,0.6,0,0.8-0.1h0.3h0.3
		c0.8-0.1,1.8-0.3,2.6-0.5l0.3-0.1c0.3-0.1,0.5-0.2,0.8-0.3l0.3-0.1l0.3-0.1h0.1l0.3-0.1l0.4-0.2l0.4-0.2l0.4-0.2l0.4-0.2L66,127
		c0.4-0.2,0.8-0.3,1.3-0.5c0.1,0,0.2-0.1,0.3-0.1l0.3-0.1l0.1-0.1l0.3-0.1c0.3-0.1,0.5-0.3,0.8-0.3C67.3,128,62.2,129.7,58.2,131.6
		L58.2,131.6z M58.6,116L58.6,116L58.6,116L58.6,116L58.6,116L58.6,116L58.6,116L58.6,116z M64.4,119l-0.2-0.2l0,0l-0.3-0.2
		l-0.1-0.1l0,0v-0.1v-0.1l0.2-0.1h0.1h0.1l0.2-0.1h0.2h0.3H65l0.4,0.3l0.1,0.1l0.2,0.2l0,0v0.1l-0.1,0.1l-0.2,0.3h-0.1l0,0l-0.1,0.1
		l-0.2,0.2l-0.2,0.1h-0.3h-0.2l-0.2-0.2l-0.1-0.3L64.4,119L64.4,119z M54.9,112.9l0.2-0.1l0.4-0.1h0.2h0.3H56l0,0l0.2-0.1v-0.1h-0.1
		l0,0l0,0l0.2-0.2l0.1-0.1v-0.1l0,0l0.2-0.2l0.1-0.1l0,0l0.2-0.1l0,0h0.2l0.1,0.1l0,0l0.1,0.1v0.1l0.1,0.1l0,0h0.1l0,0l0.1,0.1l0,0
		l-0.1,0.1l0,0v0.1l0,0v0.1h0.1l0,0l0.1,0.1l0.1,0.1v0.1h0.1l0,0h0.1l0,0v0.1l0.1,0.1v0.1v0.2h-0.1l0,0l0,0v0.1l0,0v0.1v0.1l0,0l0,0
		l0,0h0.1l0.1,0.1v0.1l0.1,0.1l0,0l0,0l0,0H58l0,0l0,0h0.1v-0.1l0,0l-0.2-0.1v-0.1H58h0.1h0.2l0,0v0.1v0.1v0.1v0.2l0.1-0.1l0,0h0.6
		v0.1l0,0v0.1l0,0l0,0v0.1v0.1l0,0l0,0v0.1v0.1l0,0l0,0l0,0H59l0,0l0,0h0.1v0.2l0,0h0.1l0,0l0,0v0.1l-0.1,0.1l-0.2,0.1l0,0v0.1l0,0
		h-0.1l0,0v-0.2l0,0h-0.1h-0.1l0,0h-0.1l0,0l0,0l-0.1,0.1l0,0l0,0l0,0v0.1v0.1l0,0l0,0h-0.1l0,0h-0.1l0,0v-0.1l0,0l0,0l0,0l-0.1-0.1
		h-0.1h-0.1l-0.2-0.1v-0.1l0,0l0,0l0,0h-0.1l0,0l0,0l-0.1,0.1v0.1v0.1v0.1h-0.3v-0.2v-0.1l-0.1-0.1l0,0l-0.1,0.1l0,0l0,0h-0.3l0,0
		l-0.1,0.1l-0.3,0.1h-0.1h-0.1l-0.1-0.1l0,0h0.1l0,0l0,0h-0.1l-0.1-0.2v-0.1l-0.1-0.1h-0.1l0,0l0,0v-0.1h-0.1h-0.1l-0.2-0.1l0,0
		v-0.1V114l0,0V114l0,0l-0.1-0.1l0,0l0,0l-0.1-0.1l-0.1-0.1v-0.1l0,0v-0.3v-0.1l-0.1-0.1l-0.2-0.2l-0.2-0.1l0,0L54.9,112.9z
		 M48.9,111.9L48.9,111.9l0.1-0.2l0.3-0.3v-0.1v-0.1l0,0v-0.1l0.1-0.1l0.2-0.1h0.1l0.2-0.1l0.2-0.1l0,0l0.3-0.2l0.1-0.1h0.1h0.1h0.1
		v-0.1l0,0l0,0l0,0l0,0h0.1h0.1l0,0l0,0l0,0l0,0h0.1l0.1-0.1v-0.1v-0.1l0.1,0.1H51H51l0.1-0.1h0.1l0.1,0.1h0.1l0.1-0.1h0.2l0,0l0,0
		h0.1l0,0h0.1h0.1l0,0l0,0l0.1,0.1l0.1,0.1v0.1l0,0v0.1h0.2v0.1l0,0l0,0l0,0l0,0l0,0v0.3l0,0v0.1v0.1l-0.1,0.1l0,0l0,0v0.1l0,0
		l-0.1,0.1l0,0v0.1v0.2v0.2v0.1v0.1v0.1v0.1l0,0l0,0l0,0H52l-0.1,0.1l-0.2,0.2l-0.1,0.2l-0.1,0.1l-0.1,0.1h-0.1l0,0l0,0l-0.1,0.1
		l0,0l-0.2-0.1H51H51l0,0h-0.1h-0.1h-0.2h-0.1l-0.2-0.1v-0.1h-0.1h-0.1h-0.1v0.1v-0.1v-0.1l0,0H50l-0.1,0.2l0,0l-0.1-0.1l0,0
		l-0.2-0.2l0,0h-0.1h-0.1h-0.1h-0.1l0,0h-0.1h-0.2l-0.1-0.1l-0.1-0.1l-0.1-0.1v-0.1L48.9,111.9L48.9,111.9z M45.8,113.7L45.8,113.7
		l0.1-0.2v-0.1v-0.1l0,0l0.1-0.1l0.1-0.1l0,0l0.1-0.1l0,0l0,0l0.2-0.1l0.3-0.2l0.1-0.1l0,0l0,0v-0.1v-0.1v-0.2h0.1h0.1h0.1l0,0H47
		v0.1l0,0l0,0l0,0l0,0l-0.1,0.2v0.2L47,113v0.1l-0.2,0.1l0,0h-0.2h-0.3l-0.1,0.1l-0.1,0.2l-0.1,0.2l-0.1,0.3l0,0v0.1H46l0,0l0,0
		h-0.1l0,0l0,0l-0.1-0.1L45.8,113.7L45.8,113.7L45.8,113.7L45.8,113.7z M43.7,115.1L43.7,115.1l0.1,0.2h-0.1l0,0V115.1L43.7,115.1z
		 M31.7,132.2c-0.4,0.3-0.5,0.3-0.9,0.6c-0.6,0.3-0.9,0.4-1.3,0.8c-0.8,0.9-0.6,0.7-0.7,0.7l-0.1,0.1l-0.1,0.1c-0.3,0.3,0,0-0.7,0.7
		c-1,1-2.1,1.9-3.2,2.8c-0.2,0.1-0.4,0-0.3-0.3l2.8-2.6c0.3-0.3,0.3-0.3,0.6-0.6c0.7-0.6,0.3-0.3,0.6-0.6c0.5-0.5,0.3-0.3,0.7-0.8
		c-0.3,0.1-0.3,0.2-0.5,0.3c-0.3,0.1-0.4,0.3-0.7,0.4c-0.3,0.3-0.4,0.3-0.8,0.7c-0.1,0.1-3.3,2.5-3.4,2.5c-0.2,0-0.3-0.1-0.2-0.3
		c0.1-0.1,3.1-2.3,3.2-2.3c1-0.8,1.2-0.8,1.6-1.1c0.6-0.4,1.1-0.9,1.4-1.5c0.3-0.4,0.2-0.3,0.5-0.8l0.1-0.1l0.1-0.2v-0.1
		c0,0,0,0.1,0.3-0.4c0.3-0.5,1.3-1.1,0.4-0.7c-0.3,0.3-0.8-1.3-1-2.2c-0.2-0.6-0.9-1.9-1.4-2.4c-0.3-0.3-0.6-0.6-0.9-0.8
		c-0.8-0.6-1.6-1.1-2.4-1.5c-1.7-0.8-2.8-1.5-3.4-1.6l1.8,0.2c0.7,0,2.1,0.3,3,0.5c0.7,0.2,2.8,1,3.3,1.3c0.6,0.3,0.7,0.3,0.8,0.8
		c0.1,0.6,0.2,1.2,0.3,1.8c0.7,1.8,0.5,1.3,1.1,2.2l0.3,0.3c0.3,0.3,0.4,0.4,0.8,0.3c0.6-0.3,0.4-0.3,0.8-0.6
		c0.1-0.1,0.3-0.3,0.5-0.3c0.3-0.2,0.3-0.2,0.4-0.2l0.3-0.1c0.2,0,0.3,0,0.4,0.1c0.3,0.1,0.3,0.3,0.4,0.2c0.4-0.3,0.6-0.5,0.9-0.6
		c0.1,0-0.3,0.3-0.3,0.3c-0.2,0.1-0.3,0.3-0.4,0.3c-0.3,0.3-0.3,0.5-0.7,0.8c-0.2,0.2-0.3,0.4-0.6,0.5c-0.4,0.2-0.7,0.5-0.7,0.9
		c0,0.3,0.5,0.6,0.8,0.8c0.7,0.5,1.3,0.9,2.2,1.2c0.8,0.3,1.6,0.6,2.4,0.7c0.5,0,0.8,0.3,1,0.8c0.3,0.8,0.6,1.6,0.8,2.4
		c0.2,0.9,0.3,1.8,0.3,2.8l-0.1,2.3c-0.3-1.2-0.7-2.3-1.3-3.3c-0.5-1-1.1-1.6-1.3-2c-0.2-0.3-0.8-0.8-1-1.2c-0.4-0.5-2-1.3-2.7-1.5
		c-1-0.3-3.1-0.7-2.5-1c0.5-0.7-0.3,0.3-0.7,0.4C31.9,132,32.1,131.9,31.7,132.2L31.7,132.2z M71.6,119v0.2v0.1l-0.1,0.2h-0.1h-0.1
		l-0.1,0.1l-0.1,0.1v0.1l-0.1,0.1H71h-0.2l-0.1,0.1l-0.1,0.1l0,0h-0.1l-0.1,0.1h-0.1l0,0V120h-0.1l-0.1,0.1v0.1h-0.1h-0.1H70h-0.1
		l0,0l-0.1,0.1l0,0h-0.1l-0.1,0.1h-0.1l-0.1,0.1l0,0l0,0l0,0h-0.1h-0.2l-0.2,0.1l-0.1,0.1h-0.1l0,0h0l0,0h-0.2l0,0l0,0l0,0l0,0v0.1
		h-0.1h-0.1v-0.1l0,0l-0.1-0.2v-0.1v-0.1l0,0v-0.1v-0.3v-0.1v-0.1l0,0v-0.1l0,0v-0.1l0,0v-0.2v-0.1l-0.1-0.1h-0.2l0,0h-0.2l0,0H68
		v0.1v0.1l0,0h-0.1h-0.1l-0.7-0.3l-0.3-0.3l0,0l-0.1-0.1l0,0l0,0v-0.1v-0.1h-0.1h0.1v-0.1h-0.1h-0.1v-0.3l0,0l0.1-0.2l0.1-0.2v-0.1
		h0.1l0,0l0,0l0,0l0,0h0.2h0.1l0,0v-0.1h0.1l0,0l0.1,0.1h0.2l0.1,0.1l0,0l0.2,0.3l0.1,0.1h0.1v0.1l0,0H68v0.1v0.1l0,0l0,0v0.1l0,0
		h0.1l0,0h0.1h0.1l0.2-0.1l0.2-0.1h0.1l0.1-0.1v-0.1v-0.1l0.1-0.1h0.1v0.1v0.1l0,0l0-0.5l0.1-0.1h0.2l0.2-0.1h0.1l0.1-0.1l0,0
		l0.2,0.1l0.1,0.2v0.1l0,0v0.1l0.2,0.1l0.2,0.1l0,0v0.1h0.3v0.1l0.1,0.2h0.1h0.1l0.3,0.2l0,0H71l0.2,0.1v0.1l0.2,0.1l0.1,0.1v0.1
		L71.6,119z M80.6,127.9L80.6,127.9l-0.3,0.3l0,0l-0.1,0.1l-0.3,0.3l-0.1,0.1l-0.2,0.2l-0.1,0.2l0,0l-0.3,0.2l0,0l-0.3,0.1l-0.3,0.2
		h-0.1l-0.1,0.1l-0.2,0.1h-0.1h-0.1h-0.1h-0.1H78h-0.2l-0.3,0.1l-0.1,0.1l-0.1,0.1l-0.2,0.2v0.2l-0.1,0.1l-0.2,0.1h-0.1l-0.1,0.1
		l-0.1,0.1l-0.1,0.1v0.1l-0.2,0.2h-0.1l-0.3,0.1l0,0h0.1l0,0l-0.1,0.1H76l0,0l-0.1,0.2h-0.1v0.1v0.1v0.1v0.1l-0.1,0.1h-0.1l0,0
		l-0.1,0.2v0.2l-0.1,0.1h-0.1l-0.1,0.1l0,0l0,0l0,0v0.1v0.1l-0.2,0.2l-0.1,0.1l0,0H75l0,0l0,0l0,0v-0.1v-0.1l-0.1-0.1l-0.1-0.1l0,0
		l-0.3-0.1l-0.3-0.3H74h-0.1l-0.2-0.1l0,0v-0.1l-0.2-0.2h-0.5l0,0l-0.1-0.3V131l0.1-0.5v-0.1v-0.3v-0.1v-0.2v-0.3v-0.1l-0.1-0.3
		l-0.1-0.2v-0.1l0,0l-0.1-0.1l-0.1-0.1v-0.3v-0.1l0,0l0,0h-0.1h-0.1l0,0l0,0l0,0h-0.1l0,0v-0.2l-0.1-0.2v-0.2l0,0l0,0l0,0v-0.3
		l-0.1-0.1l0,0l0,0l-0.1-0.2l-0.1-0.1l0,0l0,0H72l0,0v-0.1v-0.1l0,0l0,0v-0.1l-0.1-0.1l-0.1-0.1h-0.1V127l-0.1-0.1l0.1-0.1v-0.1
		v-0.2l0.2-0.2l0.1-0.1l0,0l0,0l0,0l0.2-0.2h0.1h0.1h0.1l0,0l0,0l0.1-0.1V126l0,0l0.1-0.1l0.1-0.1l0,0l0,0l0.1-0.1l0.1-0.1l0,0l0,0
		l0.1-0.2l0,0l0.1-0.1l0.1-0.1l0,0l0,0l0,0l0,0v-0.1V125v-0.1l-0.1-0.1v-0.1l0,0l0,0l0,0l0,0l-0.1-0.1l-0.2-0.2l-0.1-0.3l-0.1-0.4
		v-0.3l0.1-0.2l0.1-0.1h0.1H73l0.1-0.4l0,0h0.1h0.2l0,0l0,0h0.1l0.2,0.1l0.1,0.1v0.1v0.1l0.3,0.1l0.3,0.2l0.2,0.2h0.1l0.1,0.1
		l0.1,0.1l0,0l0.1,0.1l0,0l0.1-0.1l0.1-0.1H75h0.1l0.2,0.1l0.1,0.1l0,0h0.1h0.3h0.2l0,0l0.3,0.1l0,0l0,0l0.1,0.1l0.2,0.1l0,0
		l0.2,0.1h0.1l0.2,0.1h0.1H77H77l0,0l0,0l0,0l0,0l0.1,0.1l0,0l0,0l0,0l0.1,0.1h0.1l0.1,0.1l0.1,0.1l0,0l0.1,0.1l0.3,0.2l0,0l0.1,0.1
		l0,0v0.1v0.1H78H78h0.1l0,0l0.1,0.1v0.1v0.1v0.1l0,0v0.1l0.1,0.1v0.1v0.2v0.1v0.1l0,0v0.2l0,0l0,0l0,0l0,0l0,0l0,0h0.1h0.1h0.2h0.3
		H79l0,0v0.1l0.1,0.1v0.2v0.2v0.2l0,0l0.1,0.1h0.1h0.1h0.1l0,0v0.1v0.1l0.1,0.1l0,0l0,0l0.1,0.1h0.1l0,0l0.1,0.1l0.1,0.1l0.1,0.1H80
		l0.1,0.1h0.1h0.1l0.1,0.1l0,0L80.6,127.9L80.6,127.9z"/>
</g>
</svg>
