<?xml version="1.0" encoding="utf-8"?>
<!-- Generator: Adobe Illustrator 22.1.0, SVG Export Plug-In . SVG Version: 6.00 Build 0)  -->
<svg version="1.1" id="Layer_1" xmlns="http://www.w3.org/2000/svg" xmlns:xlink="http://www.w3.org/1999/xlink" x="0px" y="0px"
	 viewBox="0 0 300 300" style="enable-background:new 0 0 300 300;" xml:space="preserve">
<style type="text/css">
	.st0{fill:#FFFFFF;}
</style>
<g>
	<g>
		<g>
			<path class="st0" d="M138.2,98.9c0.1-0.1,0.3-0.2,0.4-0.3l-6.6-14.8c-0.1-0.1-0.2-0.2-0.3-0.1c-0.1,0.1-0.2,0.2-0.1,0.3
				L138.2,98.9z"/>
			<path class="st0" d="M140.3,90.8C140.3,90.8,140.3,90.8,140.3,90.8l0.1-1.8l-2-7.5c0-0.1-0.2-0.2-0.3-0.2c-0.1,0-0.2,0.2-0.2,0.3
				L140.3,90.8z"/>
			<path class="st0" d="M139.1,95.4v-1.5l-1-2.7c0-0.1-0.2-0.2-0.3-0.2c-0.1,0-0.2,0.2-0.2,0.3L139.1,95.4z"/>
			<path class="st0" d="M106.3,120.5c0,0.1,0.1,0.3,0.2,0.3l9.6,0.5c0.5-0.2,0.9-0.3,1.4-0.4l-11-0.6
				C106.4,120.2,106.3,120.3,106.3,120.5z"/>
			<path class="st0" d="M136.7,104.1c0-0.2,0.1-0.4,0.2-0.6L126.2,87c-0.1-0.1-0.2-0.2-0.4-0.1c-0.1,0.1-0.2,0.2-0.1,0.4
				L136.7,104.1z"/>
			<path class="st0" d="M116.6,113.1c0,0.1,0,0.3,0.2,0.3l4.9,1.5c0.2-0.1,0.3-0.3,0.5-0.4L117,113
				C116.8,112.9,116.7,113,116.6,113.1z"/>
			<path class="st0" d="M107.2,113.8c0,0.1,0.1,0.3,0.2,0.3l12.5,2.7c0.1-0.2,0.2-0.3,0.4-0.4l-12.7-2.7
				C107.4,113.5,107.2,113.6,107.2,113.8z"/>
			<path class="st0" d="M115.5,118.3c0,0.1,0.1,0.3,0.2,0.3l2.8,0.4c0.1-0.2,0.2-0.3,0.2-0.5l-3-0.4
				C115.6,118,115.5,118.1,115.5,118.3z"/>
			<path class="st0" d="M169.7,95.9c-0.1-0.1-0.3-0.1-0.4,0l-8.8,11.4c0,0.2,0.1,0.4,0.1,0.7l9.1-11.8
				C169.8,96.2,169.8,96,169.7,95.9z"/>
			<path class="st0" d="M109.2,107.4c-0.1,0.1,0,0.3,0.1,0.3l15,5.7c0.2-0.1,0.5-0.2,0.8-0.3l-15.5-6
				C109.4,107.2,109.2,107.3,109.2,107.4z"/>
			<path class="st0" d="M159.9,98.9l6.6-14.9c0.1-0.1,0-0.3-0.1-0.3c-0.1-0.1-0.3,0-0.3,0.1l-6.6,14.8
				C159.6,98.7,159.8,98.8,159.9,98.9z"/>
			<path class="st0" d="M161.4,104.1l10.9-16.8c0.1-0.1,0-0.3-0.1-0.4c-0.1-0.1-0.3,0-0.4,0.1l-10.7,16.5
				C161.3,103.7,161.4,103.9,161.4,104.1z"/>
			<path class="st0" d="M132.9,93.1c-0.1,0.1-0.2,0.2-0.1,0.4l4.8,8.8c0,0,0-0.1,0-0.1c0-0.1-0.1-0.4-0.1-0.6c0-0.2-0.1-0.4-0.1-0.7
				l-4.2-7.7C133.2,93.1,133,93.1,132.9,93.1z"/>
			<path class="st0" d="M128.4,95.9c-0.1,0.1-0.1,0.2,0,0.4l9.1,11.8c0-0.2,0.1-0.5,0.1-0.7c0,0,0,0,0,0L128.8,96
				C128.7,95.9,128.6,95.9,128.4,95.9z"/>
			<path class="st0" d="M160,91.1l-1,2.8v1.5l1.5-4.1c0-0.1,0-0.3-0.2-0.3C160.2,90.9,160,91,160,91.1z"/>
			<path class="st0" d="M160.3,81.7c0-0.1,0-0.3-0.2-0.3c-0.1,0-0.3,0-0.3,0.2l-2,7.5v1.7c0,0,0,0,0.1,0L160.3,81.7z"/>
			<path class="st0" d="M160.4,102.2c0,0,0,0.1,0,0.1l4.8-8.8c0.1-0.1,0-0.3-0.1-0.4c-0.1-0.1-0.3,0-0.4,0.1l-4.2,7.7
				c0,0.2-0.1,0.5-0.1,0.7C160.5,101.8,160.4,102.1,160.4,102.2z"/>
			<path class="st0" d="M189,107.4c-0.1-0.1-0.2-0.2-0.3-0.1l-15.5,6c0.3,0.1,0.5,0.2,0.8,0.3l15-5.7C189,107.7,189,107.5,189,107.4
				z"/>
			<path class="st0" d="M179.6,108.2c-0.1-0.1-0.2-0.2-0.3-0.1l-9.9,4.7c0.2,0,0.5,0,0.7,0c0.2,0,0.3,0,0.5,0l8.9-4.2
				C179.6,108.5,179.7,108.3,179.6,108.2z"/>
			<path class="st0" d="M118.5,108.2c-0.1,0.1,0,0.3,0.1,0.3l8.9,4.2c0.2,0,0.3,0,0.5,0c0.2,0,0.5,0,0.7,0l-9.9-4.7
				C118.7,108,118.6,108.1,118.5,108.2z"/>
			<path class="st0" d="M181.5,113.1c0-0.1-0.2-0.2-0.3-0.2l-5.3,1.6c0.2,0.1,0.4,0.3,0.5,0.4l4.9-1.5
				C181.5,113.4,181.5,113.3,181.5,113.1z"/>
			<path class="st0" d="M191.5,120.2l-11,0.6c0.5,0.1,1,0.3,1.4,0.4l9.6-0.5c0.1,0,0.3-0.1,0.2-0.3
				C191.8,120.3,191.7,120.2,191.5,120.2z"/>
			<path class="st0" d="M176.9,103.6c-0.1-0.1-0.2-0.1-0.4-0.1l-10.8,7.4c0.1,0.1,0.3,0.2,0.4,0.3l10.7-7.3
				C177,103.9,177,103.7,176.9,103.6z"/>
			<path class="st0" d="M190.9,113.8c0-0.1-0.2-0.2-0.3-0.2l-12.7,2.7c0.1,0.1,0.3,0.3,0.4,0.4l12.5-2.7
				C190.9,114,190.9,113.9,190.9,113.8z"/>
			<path class="st0" d="M182.6,118.3c0-0.1-0.1-0.2-0.3-0.2l-3,0.4c0.1,0.2,0.2,0.3,0.2,0.5l2.8-0.4
				C182.6,118.6,182.7,118.4,182.6,118.3z"/>
			<path class="st0" d="M186.1,101.4c-0.1-0.1-0.2-0.2-0.4-0.1L167,112c0.1,0.1,0.3,0.3,0.4,0.4l18.6-10.7
				C186.1,101.6,186.1,101.5,186.1,101.4z"/>
			<path class="st0" d="M115.9,95.8c-0.1,0.1-0.1,0.3,0,0.4l17.4,14.1c0.2-0.1,0.3-0.2,0.5-0.3l-17.6-14.2
				C116.1,95.7,116,95.7,115.9,95.8z"/>
			<path class="st0" d="M121.2,103.6c-0.1,0.1-0.1,0.3,0.1,0.4l10.7,7.3c0.1-0.1,0.3-0.2,0.4-0.3l-10.8-7.4
				C121.5,103.5,121.3,103.5,121.2,103.6z"/>
			<path class="st0" d="M182.3,95.8c-0.1-0.1-0.3-0.1-0.4,0L164.3,110c0.2,0.1,0.3,0.2,0.5,0.3l17.4-14.1
				C182.3,96.1,182.3,95.9,182.3,95.8z"/>
			<path class="st0" d="M112.1,101.4c-0.1,0.1,0,0.3,0.1,0.4l18.6,10.7c0.1-0.1,0.2-0.3,0.4-0.4l-18.7-10.8
				C112.3,101.2,112.1,101.2,112.1,101.4z"/>
			<path class="st0" d="M124.5,99.5c-0.1,0.1-0.1,0.3,0,0.4l10.2,9.7c0.2-0.1,0.3-0.1,0.5-0.2l-10.4-9.8
				C124.8,99.4,124.6,99.4,124.5,99.5z"/>
			<path class="st0" d="M173.6,99.5c-0.1-0.1-0.3-0.1-0.4,0l-10.4,9.8c0.2,0.1,0.3,0.1,0.5,0.2l10.2-9.7
				C173.7,99.8,173.7,99.6,173.6,99.5z"/>
			<path class="st0" d="M177.6,91c-0.1-0.1-0.3-0.1-0.4,0l-16,17.8c0.2,0,0.4,0.1,0.6,0.1l15.9-17.6C177.7,91.2,177.7,91.1,177.6,91
				z"/>
			<path class="st0" d="M120.5,91c-0.1,0.1-0.1,0.3,0,0.4l15.9,17.6c0.2-0.1,0.4-0.1,0.6-0.1l-16-17.8
				C120.8,90.9,120.6,90.9,120.5,91z"/>
		</g>
		<g>
			<path class="st0" d="M171.7,120.2c0.2,0,2.1,0,3.4,1.4c0.9,0.9,1.3,2.1,1.3,3.6v3.2c2.2-1.6,5-1.6,5.1-1.6h5.7
				c-1.7-2.7-4.6-4.7-7.9-5.2c-0.7-4.4-4.6-7.8-9.2-7.8c-0.9,0-1.8,0.1-2.6,0.4c-1.7-2.3-4.2-4-7.2-4.5c-0.3,0.4-0.7,0.7-1.1,0.9
				c-0.1,0-0.1,0.1-0.2,0.1v9.5H171.7z"/>
			<path class="st0" d="M185.4,135.5c-5.3,4.8-9.1,6.1-11.7,6.1c-0.5,0-1-0.1-1.4-0.1c-1-0.2-1.7-1-1.8-2.1v-6.7c0,0-5.1,0-11.7,0
				c-0.6,9.8-2,17.5-3.4,22.9c0.9,0.3,1.9,0.4,3,0.4c3.7,0,7.1-1.8,9.1-4.6c0.8,0.2,1.7,0.4,2.6,0.4c4.6,0,8.4-3.3,9.2-7.7
				c3.5-0.5,6.6-2.7,8.2-5.7C186.7,137.4,185.9,136.3,185.4,135.5z"/>
			<path class="st0" d="M116.6,126.8c0.1,0,3,0,5.1,1.6v-3.2c0-1.5,0.5-2.7,1.3-3.6c1.4-1.3,3.2-1.4,3.4-1.4h12.7v-9.5
				c-0.1,0-0.1-0.1-0.2-0.1c-0.4-0.2-0.8-0.5-1.1-0.9c-2.9,0.5-5.5,2.2-7.2,4.5c-0.8-0.2-1.7-0.4-2.6-0.4c-4.7,0-8.5,3.4-9.2,7.8
				c-3.3,0.5-6.2,2.4-7.9,5.2H116.6z"/>
			<path class="st0" d="M127.7,132.6v6.7c-0.1,1-0.8,1.9-1.8,2.1c-0.4,0.1-0.9,0.1-1.4,0.1c-2.6,0-6.4-1.3-11.7-6.1
				c-0.6,0.8-1.3,1.9-2.2,2.8c1.7,3,4.7,5.2,8.2,5.7c0.8,4.4,4.6,7.7,9.2,7.7c0.9,0,1.8-0.1,2.6-0.4c2.1,2.8,5.4,4.6,9.1,4.6
				c1,0,2-0.1,2.9-0.4c-1.4-5.4-2.8-13.1-3.4-22.9C132.7,132.6,127.7,132.6,127.7,132.6z"/>
		</g>
		<g>
			<path class="st0" d="M156.7,77.7c-0.4-0.1-0.9-0.1-1.4-0.2v7.5c0.6-0.1,1-0.1,1.4-0.2V77.7z"/>
			<path class="st0" d="M154.8,77.4c-0.4-0.1-0.9-0.1-1.4-0.2v7.9c0.5,0,1-0.1,1.4-0.1V77.4z"/>
			<path class="st0" d="M147.4,85.2c0.5,0,1,0,1.4,0V77c0,0,0,0,0,0c-0.5,0-1,0-1.4,0V85.2z"/>
			<path class="st0" d="M150.8,77c-0.5,0-1,0-1.4,0v8.2c0.5,0,1,0,1.4,0V77z"/>
			<path class="st0" d="M152.8,77.2c-0.5,0-0.9-0.1-1.4-0.1v8.1c0.5,0,1,0,1.4-0.1V77.2z"/>
			<path class="st0" d="M145,77.2c-0.5,0-1,0.1-1.4,0.2V85c0.4,0,0.9,0.1,1.4,0.1V77.2z"/>
			<path class="st0" d="M157.3,77.8v6.9c0.5-0.1,0.7-0.2,0.7-0.4l0-6.4C158,77.9,157.7,77.8,157.3,77.8z"/>
			<path class="st0" d="M146.9,77c-0.5,0-1,0.1-1.4,0.1v8c0.5,0,0.9,0,1.4,0V77z"/>
			<path class="st0" d="M141,77.7c-0.6,0.1-0.9,0.2-0.9,0.2l0,6.4c0,0.1,0.3,0.3,0.9,0.4V77.7z"/>
			<path class="st0" d="M141.5,84.8c0.4,0.1,0.9,0.1,1.4,0.2v-7.6c-0.6,0.1-1,0.2-1.4,0.2V84.8z"/>
		</g>
		<path class="st0" d="M140.3,95.7c0.5-0.5,1.2-0.6,1.7-0.7c0.2,0,0.5-0.1,0.6-0.1c0.1-0.1,0.3-0.3,0.4-0.5c0.3-0.5,0.7-1,1.3-1.3
			c0.2-0.1,0.5-0.2,0.8-0.2c0.4,0,0.7,0.1,1,0.2c0.2,0.1,0.4,0.1,0.6,0.1l0,0c0,0,0,0,0,0c0.1,0,0.4-0.2,0.5-0.3
			c0.4-0.3,1-0.7,1.7-0.7c0.7,0,1.3,0.4,1.7,0.7c0.2,0.1,0.4,0.3,0.5,0.3c0.2,0,0.4,0,0.6-0.1c0.3-0.1,0.7-0.2,1-0.2
			c0.3,0,0.6,0.1,0.8,0.2c0.7,0.3,1,0.9,1.3,1.3c0.1,0.2,0.3,0.4,0.4,0.5c0.1,0.1,0.4,0.1,0.6,0.1c0.5,0.1,1.2,0.2,1.7,0.7
			c0,0,0.1,0.1,0.1,0.1c0-1.1,0-2.2,0-3.2c0-1.2-1.2-0.8-1.2-1.2c0-2.2,0-4.1,0-5.6c-1.4,0.3-3.8,0.4-7.7,0.4
			c-3.9,0-6.2-0.2-7.7-0.4c0,1.5,0,3.4,0,5.6c0,0.4-1.2,0-1.2,1.2c0,1.1,0,2.1,0,3.2C140.2,95.8,140.2,95.8,140.3,95.7z"/>
		<g>
			<path class="st0" d="M159.4,106.6c0.1-0.7,1-1.3,1-2.1c0-0.7-0.9-1.4-1-2.1c-0.1-0.7,0.4-1.6,0.2-2.3c-0.3-0.7-1.3-0.9-1.7-1.5
				c-0.4-0.6-0.2-1.7-0.7-2.2c-0.5-0.5-1.6-0.3-2.2-0.7c-0.6-0.4-0.8-1.5-1.5-1.7c-0.7-0.3-1.6,0.3-2.3,0.2c-0.7-0.1-1.3-1-2.1-1
				c-0.7,0-1.4,0.9-2.1,1c-0.7,0.1-1.6-0.4-2.3-0.2c-0.7,0.3-0.9,1.3-1.5,1.7c-0.6,0.4-1.7,0.2-2.2,0.7c-0.5,0.5-0.3,1.6-0.7,2.2
				c-0.4,0.6-1.5,0.8-1.7,1.5c-0.3,0.7,0.3,1.6,0.2,2.3c-0.1,0.7-1,1.3-1,2.1c0,0.7,0.9,1.4,1,2.1c0.1,0.7-0.4,1.6-0.2,2.3
				c0.3,0.7,1.3,0.9,1.7,1.5c0.4,0.6,0.2,1.7,0.7,2.2c0.5,0.5,1.6,0.3,2.2,0.7c0.6,0.4,0.8,1.5,1.5,1.7c0.7,0.3,1.6-0.3,2.3-0.2
				c0.7,0.1,1.3,1,2.1,1c0.7,0,1.4-0.9,2.1-1c0.7-0.1,1.6,0.4,2.3,0.2c0.7-0.3,0.9-1.3,1.5-1.7c0.6-0.4,1.7-0.2,2.2-0.7
				c0.5-0.5,0.3-1.6,0.7-2.2c0.4-0.6,1.5-0.8,1.7-1.5C159.9,108.2,159.3,107.3,159.4,106.6z M149.1,107.7c-1.8,0-3.2-1.5-3.2-3.2
				c0-1.8,1.5-3.2,3.2-3.2c1.8,0,3.2,1.5,3.2,3.2C152.3,106.3,150.9,107.7,149.1,107.7z"/>
			<path class="st0" d="M149.1,102.3c-1.2,0-2.2,1-2.2,2.2c0,1.2,1,2.2,2.2,2.2c1.2,0,2.2-1,2.2-2.2
				C151.3,103.3,150.3,102.3,149.1,102.3z"/>
		</g>
		<g>
			<path class="st0" d="M141.5,120.2c0-4.7,0-1.3,0-5.3c0.2,0,0.5,0.1,0.6,0.1c0.1,0.1,0.3,0.4,0.4,0.5c0.3,0.5,0.7,1.1,1.4,1.4
				c0.3,0.1,0.6,0.2,0.9,0.2c0.4,0,0.8-0.1,1.1-0.2c0.3-0.1,0.5-0.1,0.7-0.1c0.1,0,0.4,0.2,0.6,0.3c0.5,0.3,1.1,0.6,1.9,0.6
				c0,0,0,0.8,0,2.3h8.9c0-2.5,0-4.8,0-7.1c0,0.1-0.1,0.1-0.1,0.1c-0.5,0.5-1.2,0.6-1.7,0.7c-0.2,0-0.5,0.1-0.6,0.1
				c-0.1,0.1-0.3,0.3-0.4,0.5c-0.3,0.5-0.7,1.1-1.3,1.3c-0.2,0.1-0.5,0.2-0.8,0.2c-0.4,0-0.7-0.1-1-0.2c-0.2-0.1-0.4-0.1-0.6-0.1
				c0,0,0,0,0,0c-0.1,0-0.4,0.2-0.5,0.3c-0.5,0.3-1,0.7-1.7,0.7c-0.7,0-1.3-0.4-1.7-0.7c-0.2-0.1-0.4-0.3-0.5-0.3
				c-0.1,0-0.4,0-0.6,0.1c-0.3,0.1-0.7,0.2-1,0.2c-0.3,0-0.6-0.1-0.8-0.2c-0.7-0.3-1-0.9-1.3-1.3c-0.1-0.2-0.3-0.4-0.4-0.5
				c-0.1-0.1-0.4-0.1-0.6-0.1c-0.5-0.1-1.2-0.2-1.7-0.7c0,0-0.1-0.1-0.1-0.1c0,2.3,0,4.6,0,7.1H141.5z"/>
			<path class="st0" d="M149.1,132.6c0,13.9,0,32.5,0,32.5c-0.8,0-6.2-11.5-7.4-32.5c-0.4,0-0.9,0-1.3,0c1.3,23.3,7.7,36.1,8.7,36.1
				c0.9,0,7.3-12.9,8.7-36.1C155,132.6,152,132.6,149.1,132.6z"/>
		</g>
		<g>
			<path class="st0" d="M93,137c1.5,0,3-1.1,4.3-2.5h-7.9C89.4,135.9,90.7,137,93,137z"/>
		</g>
		<path class="st0" d="M117.5,127.9L117.5,127.9c-0.4-0.1-0.9-0.1-0.9-0.1s-2.9,0-8.2,0c-4.7,0-6.3,1.6-6.7,2.3
			c-0.6,1-1.6,2.7-2.9,4.3l0,0.1h0c-0.1,0.2-0.3,0.3-0.4,0.5c0,0-0.1,0.1-0.1,0.1c-0.1,0.2-0.3,0.3-0.4,0.5c0,0,0,0,0,0
			c-1.4,1.4-3,2.5-4.7,2.5c-2.5,0-4-1.2-4.5-2.5h0c0,0,0,0,0,0c-0.1-0.1-0.1-0.5-0.1-0.5c0-0.1,0-0.5,0-0.5c0,0-1,0-1,0
			c0,3,2.8,5.5,7.7,5.5c3.6,0,2.3,0,6.7,0c4.4,0,5.8-0.4,7.3-1.8c1.5-1.4,3.5-4.6,3.5-4.6C113.8,131.9,115.7,129.2,117.5,127.9z"/>
		<g>
			<path class="st0" d="M124.6,137c-2.4-0.6-2.9-1.9-2.9-2.4v-4.9c-1.2-1.1-2.4-1.4-2.4-1.4c-1.1-0.3-3.8,2.7-6,6.2
				c6.5,6,10.5,6.2,12.3,5.8c0.7-0.1,0.9-0.7,1-1.2C126.6,138.4,126.1,137.4,124.6,137z"/>
		</g>
		<g>
			<path class="st0" d="M122.7,134.3c0,0.4,0.3,1.3,2.2,1.7c0.7,0.2,1.3,0.5,1.8,0.9v-4.3c-0.9,0-1.7,0.1-2.4,0.2
				C122.9,133.2,122.7,133.9,122.7,134.3z"/>
		</g>
		<g>
			<path class="st0" d="M205.1,137c2.3,0,3.6-1.1,3.6-2.5h-7.9C202.1,135.9,203.6,137,205.1,137z"/>
		</g>
		<path class="st0" d="M209.7,134.5c0,0,0,0.3,0,0.5c0,0-0.1,0.4-0.1,0.5c0,0,0,0,0,0h0c-0.5,1.3-1.9,2.5-4.5,2.5
			c-1.7,0-3.3-1.1-4.7-2.5c0,0,0,0,0,0c-0.1-0.1-0.3-0.3-0.4-0.5c0,0-0.1-0.1-0.1-0.1c-0.1-0.2-0.3-0.3-0.4-0.5h0l0-0.1
			c-1.3-1.6-2.3-3.3-2.9-4.3c-0.4-0.6-2-2.3-6.7-2.3c-5.2,0-8.2,0-8.2,0s-0.5,0-0.9,0.1l0,0c1.8,1.3,3.7,3.9,4.8,5.8
			c0,0,2,3.2,3.5,4.6c1.5,1.4,2.9,1.8,7.3,1.8c4.4,0,3.1,0,6.7,0c5,0,7.7-2.5,7.7-5.5C210.8,134.5,209.7,134.5,209.7,134.5z"/>
		<g>
			<path class="st0" d="M178.8,128.3c0,0-1.2,0.3-2.4,1.4v4.9c0,0.6-0.5,1.9-2.9,2.4c-1.5,0.4-2,1.4-2,2.1c0,0.5,0.3,1.1,1,1.2
				c1.8,0.4,5.9,0.1,12.3-5.8C182.6,131.1,180,128,178.8,128.3z"/>
		</g>
		<g>
			<path class="st0" d="M173.9,132.9c-0.7-0.2-1.6-0.2-2.4-0.2v4.3c0.4-0.4,1-0.7,1.8-0.9c1.8-0.4,2.2-1.3,2.2-1.7
				C175.4,133.9,175.3,133.2,173.9,132.9z"/>
		</g>
		<g>
			<path class="st0" d="M149,127.3c0,0.3,0.3,0.5,0.6,0.5c0.3,0,0.5-0.1,0.7-0.3l-0.8-0.8C149.2,126.9,149,127,149,127.3z"/>
			<path class="st0" d="M155.9,125h-0.5v1h0.6c0.3,0,0.7-0.1,0.7-0.5C156.7,125.1,156.3,125,155.9,125z"/>
			<path class="st0" d="M144.1,125h-0.6v1h0.6c0.3,0,0.8,0,0.8-0.5C144.8,125.1,144.4,125,144.1,125z"/>
			<path class="st0" d="M149.7,125.8c0.2-0.1,0.5-0.3,0.5-0.6c0-0.3-0.2-0.4-0.4-0.4c-0.2,0-0.4,0.2-0.4,0.4
				C149.3,125.5,149.5,125.7,149.7,125.8z"/>
			<path class="st0" d="M135.7,125h-0.5v1h0.6c0.3,0,0.7-0.1,0.7-0.5C136.6,125.1,136.1,125,135.7,125z"/>
			<polygon class="st0" points="130.8,126.8 131.8,126.8 131.3,125.5 			"/>
			<path class="st0" d="M127.4,125h-0.5v1h0.6c0.3,0,0.7-0.1,0.7-0.5C128.2,125.1,127.8,125,127.4,125z"/>
			<path class="st0" d="M171.7,121.2h-22.6h-22.6c0,0-3.7-0.1-3.7,3.9v7.3c0.3-0.2,0.7-0.4,1.3-0.5c1-0.2,2.1-0.3,3.2-0.3v0l21.9,0
				l21.9,0v0c1.1,0,2.3,0,3.2,0.3c0.5,0.1,0.9,0.3,1.3,0.5v-7.3C175.4,121.2,171.7,121.2,171.7,121.2z M127.6,126.9h-0.7v1.7h-1
				v-4.3h1.6c0.9,0,1.6,0.3,1.6,1.3C129.2,126.6,128.5,126.9,127.6,126.9z M132.5,128.6l-0.4-0.9h-1.7l-0.4,0.9h-1.1l1.9-4.3h0.8
				l1.9,4.3H132.5z M135.9,126.9h-0.7v1.7h-1v-4.3h1.6c0.9,0,1.6,0.3,1.6,1.3C137.5,126.6,136.9,126.9,135.9,126.9z M141.5,128.6
				h-3.1v-4.3h2.9v0.9h-2v0.8h1.9v0.9h-1.9v0.9h2.1V128.6z M144.8,128.6l-0.9-1.7h-0.5v1.7h-1v-4.3h1.7c0.9,0,1.6,0.3,1.6,1.3
				c0,0.6-0.3,1.1-0.9,1.2l1.1,1.8H144.8z M151.1,128.6l-0.4-0.4c-0.4,0.4-0.8,0.5-1.3,0.5c-0.8,0-1.5-0.4-1.5-1.3
				c0-0.6,0.4-1,0.9-1.2c-0.3-0.3-0.5-0.5-0.5-1c0-0.8,0.7-1.1,1.4-1.1c0.7,0,1.3,0.3,1.3,1.1c0,0.5-0.4,0.9-0.8,1.1l0.6,0.6
				l0.4-0.6h1.1l-0.9,1.2l1,1H151.1z M156.1,126.9h-0.7v1.7h-1v-4.3h1.6c0.9,0,1.6,0.3,1.6,1.3C157.7,126.6,157,126.9,156.1,126.9z
				 M159.5,128.6h-1v-4.3h1V128.6z M163.5,128.6l-1.1-1.7l-1,1.7h-1.1l1.5-2.3l-1.4-2.1h1.2l0.9,1.5l0.9-1.5h1.2l-1.4,2.1l1.6,2.3
				H163.5z M168.6,128.6h-3.1v-4.3h2.9v0.9h-2v0.8h1.9v0.9h-1.9v0.9h2.1V128.6z M172.4,128.6h-2.7v-4.3h1v3.5h1.8V128.6z"/>
		</g>
	</g>
	<g>
		<path class="st0" d="M112.6,208.1H108v14.5h5c1.2,0,3.2,0,4.9-1.5c2-1.9,2-4.7,2-5.7c0-1-0.1-3.6-1.8-5.5
			C116.5,208.1,114.6,208.1,112.6,208.1z M115.8,220.4c-1,0.6-1.9,0.6-3.2,0.6H110v-11.2h2.3c1,0,1.9,0,2.7,0.2c2.3,0.7,3,2.9,3,5.3
			C118,218.5,116.8,219.8,115.8,220.4z"/>
		<polygon class="st0" points="125.7,216 132.8,216 132.8,214.3 125.7,214.3 125.7,209.8 133.9,209.8 133.9,208.1 123.8,208.1 
			123.8,222.6 134.1,222.6 134.1,221 125.7,221 		"/>
		<path class="st0" d="M146.6,214.8c-0.6-0.2-1.2-0.4-2.3-0.6l-1.6-0.4c-1.3-0.3-2.9-0.7-2.9-2.3c0-1.6,1.5-2.3,3.3-2.3
			c0.9,0,1.9,0.2,2.6,0.7c1.1,0.8,1.2,2,1.2,2.4l2-0.1c-0.1-0.9-0.4-2.4-1.9-3.4c-1.3-1-2.9-1.1-3.9-1.1c-1,0-2.6,0.1-3.9,1.2
			c-0.6,0.5-1.3,1.4-1.3,2.8c0,3,3.1,3.7,5.2,4.1l1.2,0.2c1.4,0.3,2.8,0.7,2.8,2.4c0,1.9-1.6,2.9-3.6,2.9c-1.1,0-2.2-0.2-3-1
			c-1.1-1-1.2-2.2-1.2-2.8l-2.1,0.3c0.3,4.8,4.8,5,6.2,5c0.9,0,2.6-0.1,4-1c1.3-0.9,1.9-2.2,1.9-3.5
			C149.1,217.5,148.8,215.8,146.6,214.8z"/>
		<rect x="153.6" y="208.1" class="st0" width="2" height="14.5"/>
		<path class="st0" d="M167.4,209.3c1.9,0,3.1,0.8,3.6,1.4c0.6,0.6,0.8,1.3,1,1.7l2-0.5c-0.2-0.5-0.7-1.4-1.6-2.3
			c-1.4-1.3-3.2-1.9-5.1-1.9c-5.3,0-7.5,4.1-7.5,7.8c0,4.3,2.8,7.5,7.2,7.5c2,0,4.1-0.6,5.3-2.4v2h1.7V215h-6.8v1.6h5.1
			c0.1,3.8-3.3,4.7-5.1,4.7c-4,0-5.4-3.2-5.4-6C161.9,212.7,163.3,209.3,167.4,209.3z"/>
		<polygon class="st0" points="188.5,219.8 180.6,208.1 178.8,208.1 178.8,222.6 180.6,222.6 180.4,210.8 188.4,222.6 190.1,222.6 
			190.1,208.1 188.4,208.1 		"/>
	</g>
	<g>
		<path class="st0" d="M67.5,185.1h0.6c2.7,5.5,6.1,8.9,9.7,8.9c3.2,0,4.9-2.1,4.9-4.5c0-2.8-2.2-4.4-6.7-5.8
			c-4.2-1.4-8.3-3-8.3-7.9c0-5,3.7-8.4,9.2-8.4c2.2,0,4.4,0.7,5.9,1.6l1.8-1.8h0.5v8.7h-0.6c-2.8-5.4-5.3-7.8-8.1-7.8
			c-2.3,0-4.5,1.5-4.5,4.2c0,2.8,2.3,4.2,6.8,5.6c3.6,1.1,7.7,2.8,7.7,7.8c0,4.6-2.8,9.1-9.3,9.1c-2.2,0-5.1-0.7-7-1.8l-2.2,2h-0.5
			V185.1z"/>
		<path class="st0" d="M89.9,188.8V179c0-1.1-0.4-1.8-2.6-1.9v-0.5l8.4-0.2v12.1c0,2,0.8,3.2,2.5,3.2c1.2,0,2-0.6,2.9-1.8V179
			c0-1.1-0.5-1.7-2.6-1.8v-0.5l8.4-0.2v15.7c0,1.1,0.5,1.4,2.6,1.5v0.5h-8.3v-3.4c-1.5,2.4-3.6,3.7-5.9,3.7
			C92,194.5,89.9,192.6,89.9,188.8z"/>
		<path class="st0" d="M109.2,200.9c2.2,0,2.5-0.4,2.5-1.3v-20.3c0-1.1-0.4-1.8-2.6-1.9V177l8.3-0.5v2.2c1.7-1.4,3.4-2.5,5.5-2.5
			c4.5,0,7,3.5,7,8.9c0,5-2.9,9.2-8.1,9.2c-1.8,0-3.1-0.3-4.4-0.8v5.9c0,0.9,0.6,1.2,3.5,1.3v0.5h-11.9V200.9z M124,185.5
			c0-3.9-0.9-7.2-3.6-7.2c-0.8,0-1.7,0.3-2.8,1v12.2c0.8,1.7,2,2.2,3.2,2.2C122.8,193.8,124,191.1,124,185.5z"/>
		<path class="st0" d="M132.1,185.7c0-5.9,4.1-9.4,9.3-9.4c5.4,0,8.3,3.5,8.1,8.8h-11.2v0.5v0.1c0,4.8,1.9,7.2,5.6,7.2
			c2.2,0,3.7-1.1,5.2-3l0.4,0.3c-1.8,2.8-4.2,4.4-8,4.4C135.9,194.5,132.1,191.4,132.1,185.7z M138.2,184.3h5.4
			c0.5-4.4-0.4-7.2-2.5-7.2C139.2,177.1,138.4,179.9,138.2,184.3z"/>
		<path class="st0" d="M150.4,193.8c2.2,0,2.6-0.4,2.6-1.3v-13.1c0-1.1-0.4-1.8-2.6-1.9V177l8.3-0.5v3.6c1.2-2.3,3.2-3.7,5.3-3.7
			c2.3,0,3.6,1.4,3.6,3.4c0,2-1.2,3.3-3,3.3c-2,0-3.2-1.4-3.2-3c0-0.6,0.2-1.2,0.3-1.7c-0.9,0.1-2.2,1.1-3,2.3v11.6
			c0,0.9,0.6,1.2,3.5,1.3v0.5h-11.9V193.8z"/>
		<path class="st0" d="M176.4,191c-1.9,8.6-4.7,12-10.5,12c-3.4,0-5.3-1.2-5.3-3.4c0-1.5,1.2-2.7,2.8-2.7c1.6,0,2.6,1.3,2.6,2.7
			c0,1.1-0.7,2-1.6,2.4c0.4,0.2,0.7,0.3,1.4,0.3c1.2,0,2.6-0.9,3.3-4.3l4.2-18.8H169l0.3-1.1h4.3l0.4-1.6c1.4-5.7,5.1-8.4,10.2-8.4
			c3.5,0,6.7,1.4,6.7,4c0,1.8-1.1,3.1-2.9,3.1c-1.7,0-2.9-1.2-2.9-2.8c0-1,0.6-2.1,1.4-2.7c-0.3-0.3-1.4-0.7-2-0.7
			c-2.2,0-3.5,1.1-4.4,5.2l-0.9,4h6.4l5.6-0.3l-4,13.5c-0.2,0.6-0.3,1.1-0.3,1.5c0,1.2,1.1,1.5,3.9,1.3v0.5
			c-1.5,0.6-3.5,1.2-5.5,1.2c-2.7,0-3.9-0.9-3.9-2.8c0-0.5,0.1-1.1,0.3-1.8l3.6-12h-6.3L176.4,191z"/>
		<path class="st0" d="M196.8,180.6c0.3-1.1,0-1.6-2.3-1.8v-0.5l8.6-0.6l-1,3.6l0.1,0.1c2.2-2.5,4.6-3.8,6.9-3.8
			c2.5,0,3.9,1.4,3.9,3.8c0,0.7-0.1,1.6-0.4,2.6l-2.3,7.5c-0.2,0.8-0.4,1.3-0.4,1.7c0,1,0.9,1.2,3.5,1v0.5c-1.2,0.5-3.4,0.9-5.1,0.9
			c-2.7,0-4-0.9-4-2.7c0-0.5,0.1-1.2,0.3-1.9l2.3-7.6c0.3-0.9,0.4-1.4,0.4-2.1c0-1-0.4-1.5-1.4-1.5c-1.1,0-2.7,0.8-4.1,2.2
			l-3.4,13.3h-5.8l1.8-6.1L196.8,180.6z"/>
		<path class="st0" d="M220.6,186.7c-0.1,0.6-0.2,1.2-0.2,1.8c0,3.5,1.2,5.2,4.4,5.2c2,0,4.4-1.2,5.9-3.4l0.5,0.4
			c-1.9,3.1-5,5.1-9,5.1c-4.6,0-7.5-3.1-7.5-7.2c0-6.1,4.9-10.9,12-10.9c4.1,0,5.9,1.9,5.9,4.1C232.5,184.7,228.9,187.2,220.6,186.7
			z M220.7,186c6,0.1,7.2-3.3,7.2-5.6c0-1.4-0.5-2-1.6-2C224.1,178.3,221.5,182,220.7,186z"/>
	</g>
</g>
</svg>
